<svg id="c91eade4-4c8d-41b4-a0eb-65ba12a5cb27" data-name="Layer 1" xmlns="http://www.w3.org/2000/svg" width="126" height="93" viewBox="0 0 126 93">
  <defs>
    <style>
      .\36 d39b871-4916-4922-b231-20f534339564 {
        fill: #8d8d93;
      }
    </style>
  </defs>
  
  <g>
    <path class="6d39b871-4916-4922-b231-20f534339564" d="M28,50h6a1,1,0,0,0,1-1V35a1,1,0,0,0-1-1H28a1,1,0,0,0-1,1V49A1,1,0,0,0,28,50Zm1-14h4V48H29V36Z"></path>
    <path class="6d39b871-4916-4922-b231-20f534339564" d="M36,61H26a1,1,0,0,0-1,1V73a1,1,0,0,0,1,1H36a1,1,0,0,0,1-1V62A1,1,0,0,0,36,61ZM35,72H27V63h8v9Z"></path>
    <path class="6d39b871-4916-4922-b231-20f534339564" d="M74,65h8a1,1,0,0,0,1-1V56a1,1,0,0,0-1-1H74a1,1,0,0,0-1,1v8A1,1,0,0,0,74,65Zm1-8h6v6H75V57Z"></path>
    <path class="6d39b871-4916-4922-b231-20f534339564" d="M75,46h6a1,1,0,0,0,1-1V37a1,1,0,0,0-1-1H75a1,1,0,0,0-1,1v8A1,1,0,0,0,75,46Zm1-8h4v6H76V38Z"></path>
    <path class="6d39b871-4916-4922-b231-20f534339564" d="M103,46h6a1,1,0,0,0,1-1V37a1,1,0,0,0-1-1h-6a1,1,0,0,0-1,1v8A1,1,0,0,0,103,46Zm1-8h4v6h-4V38Z"></path>
    <path class="6d39b871-4916-4922-b231-20f534339564" d="M54,34H48a1,1,0,0,0-1,1V49a1,1,0,0,0,1,1h6a1,1,0,0,0,1-1V35A1,1,0,0,0,54,34ZM53,48H49V36h4V48Z"></path>
    <path class="6d39b871-4916-4922-b231-20f534339564" d="M125.5,32.14l-24-14A1,1,0,0,0,101,18H56.95L42.54,0.72a2,2,0,0,0-3.07,0L25,18.08V10a1,1,0,0,0,0-2V5a1,1,0,0,0-1-1H19a1,1,0,0,0-1,1V8a1,1,0,0,0,0,2V26a1,1,0,0,0,.08.38l-3.61,4.34A2,2,0,0,0,14,32v4a2,2,0,0,0,3.54,1.28L18,36.72V82a1,1,0,0,0,.08.42c0.29,0.7.29,0.7,7.84,0.72h4.38l10.75,0c11,0,22-.09,22-0.09a1,1,0,0,0,1-1V73h57a1,1,0,0,0,1-1V34h3A1,1,0,0,0,125.5,32.14ZM100.73,20L121.3,32H68a2,2,0,0,0-.46-1.28L58.6,20h42.13ZM20,6h3V8H20V6Zm0,4h3V20a1,1,0,0,0,.08.38L20,24.08V10ZM16,36V32L41,2,66,32v4L41,6ZM45.23,61L51,54.5,56.77,61H45.23ZM56,63V81l-10,0V63H56Zm6,18-4,0V63h1a1,1,0,0,0,.75-1.66l-8-9a1,1,0,0,0-1.49,0l-8,9A1,1,0,0,0,43,63h1V81.08c-10.94,0-21,0-24,0V34.32L41,9.12l21,25.2V81Zm40.17-26L106,50.54,109.83,55h-7.65ZM109,57V71h-6V57h6Zm11,14h-9V57h1a1,1,0,0,0,.76-1.65l-6-7a1,1,0,0,0-1.52,0l-6,7A1,1,0,0,0,100,57h1V71H64V36.72l0.46,0.56A2,2,0,0,0,68,36V34h52V71Z"></path>
    <path class="6d39b871-4916-4922-b231-20f534339564" d="M7,55A7,7,0,0,0,6,68.92V92a1,1,0,0,0,2,0V68.92A7,7,0,0,0,7,55ZM7,67a5,5,0,1,1,5-5A5,5,0,0,1,7,67Z"></path>
    <circle class="6d39b871-4916-4922-b231-20f534339564" cx="8" cy="61" r="1"></circle>
  </g>
</svg>