<svg xmlns="http://www.w3.org/2000/svg" viewBox="0 0 100 100" width="500" height="500"><g id="home"><g id="background_round_58_"><path d="M86.876 56.546c.3-.616.566-1.264.796-1.943 2.633-7.77-1.349-17.078-9.733-19.325-.906-11.384-8.906-19.193-17.941-20.526-10.341-1.525-19.814 5.044-22.966 15.485-3.799-1.346-7.501-1.182-10.99.857-1.583.732-3.031 1.812-4.33 3.233-1.907 2.086-3.147 4.719-3.652 7.495-.748.118-1.483.236-2.176.484-4.04 1.449-6.589 4.431-7.288 8.923-.435 2.797.443 5.587.933 6.714 1.935 4.455 6.422 6.98 10.981 6.312.227-.033.557.069.752.233.241 7.12 3.698 13.417 8.884 17.014 8.321 5.772 19.027 3.994 25.781-3.921 2.894 2.96 6.338 4.398 10.384 3.876 4.023-.519 7.147-2.739 9.426-6.349 1.053.283 2.051.691 3.083.804 4.042.442 7.118-1.311 9.732-4.8 1.488-1.986 1.779-5.145 1.793-6.354.039-3.255-1.292-6.222-3.469-8.212z" fill="#c8ede6"/><path d="M72.986 65.336h11.762a4.888 4.888 0 0 0 1.004-9.673c.026-.206.043-.415.043-.628a5.063 5.063 0 0 0-5.063-5.063 5.049 5.049 0 0 0-4.037 2.017 5.584 5.584 0 0 0-6.27-5.116c-2.379.291-4.346 2.13-4.784 4.486a5.683 5.683 0 0 0 .014 2.177 3.479 3.479 0 0 0-2.557-1.119 3.49 3.49 0 0 0-3.48 3.261 4.686 4.686 0 0 0-2.717.188c-1.84.691-3.15 2.423-3.227 4.387a4.89 4.89 0 0 0 4.885 5.085H69.83" fill="#fdfcef"/><path d="M84.748 65.836H72.986a.5.5 0 0 1 0-1h11.762a4.394 4.394 0 0 0 4.388-4.389 4.407 4.407 0 0 0-3.486-4.296.5.5 0 0 1-.394-.551c.023-.186.039-.373.039-.566a4.567 4.567 0 0 0-4.563-4.562 4.53 4.53 0 0 0-3.638 1.818.499.499 0 1 1-.897-.263 5.108 5.108 0 0 0-1.851-3.55 5.053 5.053 0 0 0-3.859-1.108c-2.167.266-3.956 1.943-4.353 4.08a5.186 5.186 0 0 0 .012 1.987.499.499 0 0 1-.856.44 2.961 2.961 0 0 0-2.19-.959 2.995 2.995 0 0 0-2.981 2.793.498.498 0 0 1-.607.456 4.171 4.171 0 0 0-2.433.167c-1.669.627-2.836 2.209-2.903 3.938a4.36 4.36 0 0 0 1.222 3.219 4.354 4.354 0 0 0 3.164 1.347H69.83a.5.5 0 0 1 0 1H58.561a5.345 5.345 0 0 1-3.884-1.653 5.35 5.35 0 0 1-1.5-3.951c.083-2.126 1.51-4.069 3.551-4.835.8-.3 1.628-.399 2.468-.299a4 4 0 0 1 3.905-3.182c.685 0 1.354.18 1.944.51 0-.386.035-.772.107-1.159.476-2.562 2.62-4.573 5.215-4.891a6.044 6.044 0 0 1 4.615 1.327 6.127 6.127 0 0 1 2.039 3.194 5.502 5.502 0 0 1 3.714-1.426 5.569 5.569 0 0 1 5.556 5.81 5.415 5.415 0 0 1 3.848 5.165 5.397 5.397 0 0 1-5.391 5.389z" fill="#472b29"/><path d="M70.153 54.567c-1.808-.119-3.365 1.13-3.476 2.789-.014.206-.005.409.025.606a2.127 2.127 0 0 0-1.458-.7c-1.085-.071-2.022.645-2.158 1.62a3.097 3.097 0 0 0-.616-.104c-1.582-.104-2.944.989-3.042 2.441" fill="#fdfcef"/><path d="M59.429 61.468l-.017-.001a.25.25 0 0 1-.233-.266c.106-1.587 1.592-2.782 3.307-2.673.135.008.271.025.409.053.274-.969 1.255-1.648 2.366-1.568.425.027.823.16 1.163.382l.003-.056c.12-1.793 1.796-3.17 3.742-3.021.138.009.242.128.233.266s-.14.253-.266.232c-1.681-.092-3.109 1.039-3.21 2.558-.013.184-.005.369.023.551a.25.25 0 0 1-.434.204 1.894 1.894 0 0 0-1.288-.617c-.929-.036-1.775.555-1.894 1.405a.25.25 0 0 1-.314.207 2.94 2.94 0 0 0-.567-.097c-1.435-.085-2.687.896-2.776 2.208a.246.246 0 0 1-.247.233z" fill="#472b29"/><path d="M86.728 56.236c-1.699-.801-3.664-.234-4.389 1.267-.09.186-.157.379-.201.574" fill="#fdfcef"/><path d="M82.138 58.326a.25.25 0 0 1-.244-.306c.049-.216.123-.427.219-.626.782-1.621 2.9-2.242 4.721-1.385a.25.25 0 0 1-.213.453c-1.574-.743-3.394-.227-4.058 1.148-.08.166-.141.341-.182.521a.25.25 0 0 1-.243.195z" fill="#472b29"/><path d="M16.541 48.582H6.511a.5.5 0 0 1 0-1h10.031a.5.5 0 1 1-.001 1zm2.881 0h-1.446a.5.5 0 0 1 0-1h1.446a.5.5 0 0 1 0 1zm4.055 0h-2.546a.5.5 0 0 1 0-1h2.546a.5.5 0 0 1 0 1zm0 1.865h-9.616a.5.5 0 0 1 0-1h9.616a.5.5 0 0 1 0 1zm-11.348 0h-.58a.5.5 0 0 1 0-1h.58a.5.5 0 0 1 0 1zm-2.377 0H8.296a.5.5 0 0 1 0-1h1.456a.5.5 0 0 1 0 1zm9.136-3.73h-5.027a.5.5 0 0 1 0-1h5.027a.5.5 0 0 1 0 1zm0-1.865h-1.257a.5.5 0 0 1 0-1h1.257a.5.5 0 0 1 0 1zm-3.268 7.46h-1.759a.5.5 0 0 1 0-1h1.759a.5.5 0 0 1 0 1z" fill="#fff"/><g fill="#fff"><path d="M69.719 22.305h-10.03a.5.5 0 0 1 0-1h10.03a.5.5 0 0 1 0 1zm2.882 0h-1.446a.5.5 0 0 1 0-1h1.446a.5.5 0 0 1 0 1zm4.054 0h-2.546a.5.5 0 0 1 0-1h2.546a.5.5 0 0 1 0 1zm-2.026-3.729h-9.617a.5.5 0 0 1 0-1h9.617a.5.5 0 0 1 0 1zm-11.348 0h-.58a.5.5 0 0 1 0-1h.58a.5.5 0 0 1 0 1zm-2.377 0h-1.456a.5.5 0 0 1 0-1h1.456a.5.5 0 0 1 0 1zm11.162 1.864h-5.027a.5.5 0 0 1 0-1h5.027a.5.5 0 0 1 0 1z"/><path d="M72.066 18.576h-1.257a.5.5 0 0 1 0-1h1.257a.5.5 0 0 1 0 1zm-6.483 1.864h-1.759a.5.5 0 0 1 0-1h1.759a.5.5 0 0 1 0 1z"/></g><path fill="#fdfcee" d="M28.728 46.696h25.226v21.243H28.728z"/><path d="M54.455 68.439H28.228V46.196h26.227v22.243zm-25.227-1h24.227V47.196H29.228v20.243z" fill="#472b29"/><path d="M52.627 68.639H28.728a.7.7 0 0 1-.7-.7V46.696a.7.7 0 1 1 1.4 0v20.543h23.199a.7.7 0 1 1 0 1.4z" fill="#472b29"/><path fill="#fdfcee" d="M53.955 46.696H77.19v22.571H53.955z"/><path d="M77.189 69.967H53.955a.7.7 0 0 1-.7-.7V46.696a.7.7 0 0 1 .7-.7H77.19a.7.7 0 0 1 .7.7v22.571a.7.7 0 0 1-.701.7zm-22.534-1.4h21.834V47.396H54.655v21.171z" fill="#472b29"/><path fill="#cdcbbd" d="M54.618 47.36h21.907v1.992H54.618z"/><path fill="#ee3e54" d="M28.748 46.696h-2.061l4.844-12.613h44.331L79.6 46.696h-.9z"/><path d="M79.6 47.396H26.687a.7.7 0 0 1-.653-.951l4.844-12.613a.7.7 0 0 1 .653-.449h44.332a.7.7 0 0 1 .671.501l3.738 12.613a.706.706 0 0 1-.11.618.706.706 0 0 1-.562.281zm-51.895-1.401h50.957L75.34 34.783H32.012l-4.307 11.212z" fill="#472b29"/><path fill="#c0e5e4" d="M70.219 55.658v8.63h-9.294V53.666h7.966"/><path d="M70.219 64.638h-9.294a.35.35 0 0 1-.35-.35V53.666a.35.35 0 0 1 .35-.35h7.966a.35.35 0 1 1 0 .7h-7.616v9.923h8.594v-8.281a.35.35 0 0 1 .7 0v8.631a.349.349 0 0 1-.35.349z" fill="#472b29"/><path d="M65.572 64.638a.35.35 0 0 1-.35-.35V53.666a.35.35 0 0 1 .7 0v10.622a.35.35 0 0 1-.35.35z" fill="#472b29"/><path d="M43.01 67.607V57.369c0-2.402-2.091-4.367-4.647-4.367s-4.647 1.965-4.647 4.367v10.238h9.294z" fill="#b2b1c2"/><path d="M43.01 67.956h-9.294a.35.35 0 0 1-.35-.35V57.37c0-2.601 2.242-4.717 4.997-4.717s4.997 2.116 4.997 4.717v10.237a.35.35 0 0 1-.35.349zm-8.944-.699h8.594V57.37c0-2.215-1.928-4.018-4.297-4.018s-4.297 1.803-4.297 4.018v9.887z" fill="#472b29"/><path d="M41.018 59.641v-1.124c0-1.603-1.195-2.915-2.655-2.915s-2.655 1.312-2.655 2.915v1.124h5.31z" fill="#c0e5e4"/><path d="M41.018 59.891h-5.311a.25.25 0 0 1-.25-.25v-1.123c0-1.745 1.303-3.165 2.905-3.165s2.905 1.42 2.905 3.165v1.123a.249.249 0 0 1-.249.25zm-5.061-.5h4.811v-.873c0-1.47-1.079-2.665-2.405-2.665s-2.405 1.195-2.405 2.665v.873zm5.725 3.155h-.664a.25.25 0 0 1 0-.5h.664a.25.25 0 0 1 0 .5z" fill="#472b29"/><path fill="#cdcbbd" d="M29.392 47.36h23.899v1.328H29.392z"/><path fill="#c0e5e4" d="M50.976 60.305h-4.647V54.33h5.311v4.647"/><path d="M50.976 60.655h-4.647a.35.35 0 0 1-.35-.35V54.33a.35.35 0 0 1 .35-.35h5.311a.35.35 0 0 1 .35.35v4.646a.35.35 0 0 1-.7 0V54.68h-4.61v5.275h4.297a.35.35 0 1 1-.001.7z" fill="#472b29"/><path d="M48.984 60.655a.35.35 0 0 1-.35-.35V54.33a.35.35 0 0 1 .7 0v5.975a.35.35 0 0 1-.35.35z" fill="#472b29"/><path fill="#fdd4b2" d="M68.891 31.759h4.647v9.294h-4.647z"/><path d="M73.539 41.303h-4.647a.25.25 0 0 1-.25-.25v-9.294a.25.25 0 0 1 .25-.25h4.647a.25.25 0 0 1 .25.25v9.294a.25.25 0 0 1-.25.25zm-4.397-.5h4.147v-8.794h-4.147v8.794z" fill="#472b29"/><path d="M74.202 32.423h-5.975a.666.666 0 0 1-.664-.664c0-.365.299-.664.664-.664h5.975c.365 0 .664.299.664.664a.666.666 0 0 1-.664.664z" fill="#fbb97f"/><path d="M74.202 32.673h-5.975a.915.915 0 0 1 0-1.828h5.975a.915.915 0 0 1 0 1.828zm-5.975-1.328a.415.415 0 0 0 0 .828h5.975a.414.414 0 0 0 0-.828h-5.975zM51.631 49.319H49.64a.3.3 0 1 1 0-.6h1.992a.3.3 0 1 1-.001.6zm-3.983 0H29.06a.3.3 0 1 1 0-.6h18.588a.3.3 0 1 1 0 .6zm29.873.664h-17.26a.3.3 0 1 1 0-.6h17.26a.3.3 0 1 1 0 .6zM66.9 37.37H32.379a.3.3 0 1 1 0-.6H66.9a.3.3 0 1 1 0 .6zm-1.992 1.992H31.716a.3.3 0 1 1 0-.6h33.192a.3.3 0 1 1 0 .6zm-1.328 1.991H31.052a.3.3 0 1 1 0-.6H63.58a.3.3 0 1 1 0 .6zm-5.311 8.63h-1.328a.3.3 0 1 1 0-.6h1.328a.3.3 0 1 1 0 .6z" fill="#472b29"/><path d="M32.762 70.807h3.35c1.997 0 3.615-1.595 3.615-3.563 0-1.717-1.232-3.149-2.872-3.487a3.63 3.63 0 0 0 .032-.458c0-2.038-1.676-3.691-3.744-3.691a3.755 3.755 0 0 0-2.986 1.47c-.175-2.269-2.231-4.019-4.637-3.729-1.759.212-3.214 1.552-3.538 3.27a4.087 4.087 0 0 0 .01 1.587 2.59 2.59 0 0 0-1.891-.816c-1.369 0-2.485 1.05-2.574 2.377a3.516 3.516 0 0 0-2.009.137c-1.361.503-2.33 1.766-2.387 3.198-.081 2.033 1.568 3.706 3.612 3.706h8.334m1.556-.001h.34" fill="#fdfcef"/><path d="M36.112 71.307h-3.35a.5.5 0 0 1 0-1h3.35c1.718 0 3.115-1.374 3.115-3.063 0-1.441-1.04-2.702-2.474-2.998a.499.499 0 0 1-.395-.552c.017-.13.028-.261.028-.395 0-1.759-1.455-3.19-3.244-3.19a3.237 3.237 0 0 0-2.589 1.274.5.5 0 0 1-.895-.266 3.53 3.53 0 0 0-1.298-2.474 3.65 3.65 0 0 0-2.78-.798c-1.546.187-2.824 1.365-3.107 2.866-.088.469-.085.938.009 1.393a.501.501 0 0 1-.854.444 2.077 2.077 0 0 0-1.527-.658c-1.092 0-2.003.839-2.075 1.91a.496.496 0 0 1-.199.366c-.116.089-.264.12-.407.089a3.004 3.004 0 0 0-1.729.117c-1.185.438-2.013 1.542-2.061 2.748a3.022 3.022 0 0 0 .848 2.228 3.115 3.115 0 0 0 2.265.959h8.334a.5.5 0 0 1 0 1h-8.334c-1.14 0-2.2-.45-2.985-1.267a4.004 4.004 0 0 1-1.126-2.959c.063-1.605 1.153-3.07 2.712-3.646a4.053 4.053 0 0 1 1.769-.237 3.082 3.082 0 0 1 4.3-2.015c.01-.219.035-.438.077-.657.363-1.925 1.995-3.436 3.97-3.673a4.62 4.62 0 0 1 5.004 3.198 4.235 4.235 0 0 1 2.678-.941c2.34 0 4.244 1.88 4.244 4.19l-.001.08c1.67.538 2.842 2.099 2.842 3.864 0 2.24-1.846 4.063-4.115 4.063zm-9.139 0h-.34a.5.5 0 0 1 0-1h.34a.5.5 0 0 1 0 1z" fill="#472b29"/><path d="M34.496 65.765a.25.25 0 0 1-.244-.305c.036-.157.09-.312.161-.457.576-1.174 2.163-1.607 3.541-.966a.25.25 0 1 1-.211.453c-1.134-.527-2.425-.199-2.88.732a1.59 1.59 0 0 0-.122.347.252.252 0 0 1-.245.196zm-4.881 5.542h-1.048a.5.5 0 0 1 0-1h1.048a.5.5 0 0 1 0 1z" fill="#472b29"/></g></g></svg>