<svg xmlns="http://www.w3.org/2000/svg" version="1.1" width="61.44" height="36.287" id="svg1623"><path id="path1576" d="M37.638 12.187c-2.282 1.59-3.756 3.694-4.748 6.296-.658 1.726-1.064 3.562-1.33 5.386-.308 2.11-.437 4.262-.47 6.398 2.584-2.836 4.926-6.162 6.137-9.803.89-2.678 1.147-5.536.41-8.277z" fill="#faa619" fill-rule="evenodd"/><path id="path1578" d="M37.47 10.574C35.906 6.779 32.714 3.989 30.72 0c-1.995 3.989-5.187 6.779-6.75 10.574.161.098.32.2.48.307 2.665 1.801 4.524 4.41 5.7 7.38.254.643.476 1.301.669 1.97.205-.775.444-1.531.723-2.261 1.121-2.942 2.828-5.319 5.449-7.089.158-.107.318-.209.478-.307z" fill="#ee3f21" fill-rule="evenodd"/><path id="path1580" d="M48.236 21.08c-2.77-.248-5.252.416-7.684 1.772-1.613.898-3.105 2.044-4.48 3.27-1.593 1.42-3.075 2.984-4.474 4.6 3.803-.512 7.735-1.554 11.003-3.565 2.415-1.486 4.434-3.493 5.635-6.077z" fill="#abc228" fill-rule="evenodd"/><path id="path1582" d="M32.15 32.101c8.05 4.897 14.394 5 18.822 2.845 4.215-2.052 6.481-6.213 10.468-9.17-4.275-1.271-7.577-3.93-11.586-4.81-.069.175-.142.35-.22.525-1.31 2.938-3.557 5.221-6.277 6.895-3.345 2.057-7.315 3.16-11.208 3.715z" fill="#7da630" fill-rule="evenodd"/><path id="path1584" d="M49.144 19.736c1.243-3.911.59-8.1 1.627-12.438-4.092 1.773-8.331 1.858-11.967 3.761.06.18.116.36.169.544.88 3.078.626 6.3-.377 9.317a21.567 21.567 0 0 1-.754 1.939 22.693 22.693 0 0 1 2.007-1.267c2.75-1.533 5.586-2.256 8.73-1.928.19.02.379.044.565.072z" fill="#ffc20c" fill-rule="evenodd"/><path id="path1586" d="M23.802 12.187c-.722 2.675-.499 5.255.41 7.875.605 1.745 1.475 3.413 2.443 4.98 1.121 1.815 2.405 3.546 3.752 5.204.157-3.834-.186-7.887-1.599-11.454-1.044-2.637-2.67-4.973-5.006-6.605z" fill="#f36e1e" fill-rule="evenodd"/><path id="path1588" d="M22.636 11.06C19 9.155 14.761 9.07 10.67 7.297c1.036 4.338.384 8.527 1.627 12.438.186-.028.374-.052.564-.072 3.193-.333 6.307.473 9.11 1.99.609.328 1.202.69 1.779 1.078a22.638 22.638 0 0 1-.9-2.197c-1.028-2.963-1.248-5.903-.382-8.932.053-.184.11-.365.17-.544z" fill="#94003a" fill-rule="evenodd"/><path id="path1590" d="M29.872 30.669c-2.344-3.038-5.213-5.922-8.588-7.747-2.49-1.346-5.247-2.092-8.08-1.842 1.17 2.523 2.985 4.34 5.376 5.77 1.585.947 3.323 1.666 5.073 2.244 2.025.67 4.12 1.17 6.219 1.575z" fill="#f399bf" fill-rule="evenodd"/><path id="path1592" d="M11.586 20.966c-4.01.88-7.31 3.539-11.586 4.81 3.987 2.957 6.252 7.118 10.467 9.17 4.446 2.164 9.885 1.884 18.776-2.93-3.886-.767-8.05-1.925-11.403-3.928-2.702-1.615-4.746-3.71-6.035-6.597a12.91 12.91 0 0 1-.22-.525z" fill="#ee5999" fill-rule="evenodd"/></svg>