<?xml version="1.0" encoding="UTF-8" standalone="no"?>
<svg
   xmlns:dc="http://purl.org/dc/elements/1.1/"
   xmlns:cc="http://creativecommons.org/ns#"
   xmlns:rdf="http://www.w3.org/1999/02/22-rdf-syntax-ns#"
   xmlns:svg="http://www.w3.org/2000/svg"
   xmlns="http://www.w3.org/2000/svg"
   viewBox="0 0 76.799896 23.9998"
   id="svg10288"
   height="23.9998"
   width="76.799896"
   version="1.1">
  <metadata
     id="metadata10294">
    <rdf:RDF>
      <cc:Work
         rdf:about="">
        <dc:format>image/svg+xml</dc:format>
        <dc:type
           rdf:resource="http://purl.org/dc/dcmitype/StillImage" />
        <dc:title></dc:title>
      </cc:Work>
    </rdf:RDF>
  </metadata>
  <defs
     id="defs10292" />
  <path
     id="path10278"
     style="fill:#e30016;fill-rule:evenodd"
     d="m 29.6103,13.5556 h 0.9462 c 0.508,0 0.8688,-0.1202 1.0851,-0.3581 0.2166,-0.2381 0.3263,-0.6335 0.3263,-1.1868 V 11.118 c 0,-0.4864 -0.1097,-0.8339 -0.3289,-1.0451 -0.2191,-0.2112 -0.5799,-0.318 -1.0825,-0.318 h -0.9462 z m 0,-5.1319 h 0.8526 c 0.5318,0 0.9009,-0.0989 1.1039,-0.2968 0.2032,-0.2004 0.3047,-0.5425 0.3047,-1.0343 v -0.58 c 0,-0.39 -0.1043,-0.6815 -0.3101,-0.8739 C 31.3556,5.4488 31.0375,5.3552 30.6047,5.3552 h -0.9944 z m -2.7264,6.495 v -1.4113 h 0.8983 V 5.4088 H 26.8839 V 3.9974 h 3.8999 c 0.9675,0 1.6838,0.2007 2.1515,0.6041 0.4677,0.4036 0.7002,1.021 0.7002,1.8496 v 0.3824 c 0,0.6519 -0.1522,1.1625 -0.4544,1.5315 -0.3045,0.3688 -0.7671,0.6067 -1.387,0.7164 0.6922,0.0989 1.1999,0.3367 1.5208,0.708 0.3206,0.3745 0.481,0.9117 0.481,1.6118 v 0.711 c 0,0.9677 -0.2245,1.6758 -0.676,2.1276 -0.4519,0.4519 -1.1549,0.6789 -2.109,0.6789 z m 10.7368,-4.4583 h 2.0367 L 38.6633,6.0129 Z m -3.0682,4.4583 v -1.4113 h 0.6976 L 37.3937,5.4088 H 36.4474 V 3.9974 h 4.5865 V 5.4088 H 40.088 l 2.1141,8.0986 h 0.6414 v 1.4113 h -3.4452 v -1.4113 h 0.9621 l -0.4303,-1.8281 h -2.598 l -0.4544,1.8281 h 0.9329 v 1.4113 z M 40.8871,0.5655 C 40.772,1.1724 40.5957,1.624 40.3604,1.9182 40.1226,2.2147 39.8153,2.3618 39.4411,2.3618 39.3688,2.3618 39.2914,2.3564 39.2138,2.3431 39.1364,2.3298 39.0482,2.3083 38.9493,2.2842 L 38.2837,2.0571 C 38.2276,2.0356 38.1686,2.0197 38.1074,2.0089 38.0485,1.9981 37.9816,1.993 37.9096,1.993 c -0.1792,0 -0.3155,0.0426 -0.4145,0.1282 -0.0989,0.0856 -0.1817,0.2299 -0.2432,0.4331 h -0.7271 c 0.1043,-0.5749 0.2781,-1.0106 0.5188,-1.3045 0.2432,-0.2965 0.5479,-0.4436 0.9113,-0.4436 0.0777,0 0.163,0.0079 0.2512,0.0241 0.0884,0.0158 0.1737,0.0374 0.2568,0.0694 l 0.6814,0.2137 c 0.0723,0.0241 0.1389,0.0457 0.2033,0.059 0.0615,0.0133 0.1202,0.0187 0.1709,0.0187 0.163,0 0.2914,-0.0482 0.3903,-0.1443 C 40.0078,0.9505 40.0931,0.79 40.16,0.5655 Z m 8.839,6.4925 v 4.8163 c 0,1.0718 -0.2648,1.8871 -0.7912,2.4404 -0.5267,0.5533 -1.2991,0.8285 -2.3148,0.8285 -1.0182,0 -1.7934,-0.2752 -2.3227,-0.8285 -0.5292,-0.5533 -0.7937,-1.3686 -0.7937,-2.4404 V 7.058 c 0,-1.0718 0.2645,-1.8845 0.7937,-2.4378 0.5293,-0.5531 1.3045,-0.8311 2.3227,-0.8311 1.0157,0 1.7881,0.278 2.3148,0.8311 0.5264,0.5533 0.7912,1.366 0.7912,2.4378 z M 47.8175,6.9483 c 0,-0.5638 -0.0961,-0.9729 -0.2857,-1.2322 -0.19,-0.2591 -0.4947,-0.3875 -0.9117,-0.3875 -0.4195,0 -0.7242,0.1284 -0.9192,0.3875 -0.1925,0.2593 -0.2889,0.6684 -0.2889,1.2322 v 5.0196 c 0,0.5641 0.0964,0.9728 0.2889,1.2322 0.195,0.2594 0.4997,0.3875 0.9192,0.3875 0.417,0 0.7217,-0.1281 0.9117,-0.3875 0.1896,-0.2594 0.2857,-0.6681 0.2857,-1.2322 z m 12.2363,4.3622 v 0.4544 c 0,1.0984 -0.2647,1.9378 -0.794,2.5149 -0.5264,0.5749 -1.2963,0.8634 -2.3037,0.8634 -1.0264,0 -1.8042,-0.2993 -2.3309,-0.8954 -0.5292,-0.5987 -0.7937,-1.4755 -0.7937,-2.6326 V 7.6059 c 0,-1.2642 0.2324,-2.2158 0.6976,-2.8573 0.4652,-0.6389 1.1628,-0.9595 2.0874,-0.9595 0.3929,0 0.7484,0.0669 1.0692,0.2004 0.3206,0.1338 0.5908,0.3342 0.8125,0.6015 V 3.9923 h 1.3793 V 7.285 H 58.3859 L 58.37,6.9965 C 58.3298,6.4378 58.2068,6.0208 57.9984,5.743 57.7872,5.4675 57.4879,5.3286 57.095,5.3286 c -0.4623,0 -0.8045,0.1389 -1.0239,0.4198 -0.2216,0.2778 -0.3313,0.7163 -0.3313,1.3096 v 4.8163 c 0,0.5933 0.1097,1.029 0.3262,1.3017 0.2191,0.2752 0.5613,0.4116 1.029,0.4116 0.4516,0 0.7912,-0.1443 1.0157,-0.4357 0.227,-0.2886 0.3393,-0.7217 0.3393,-1.2934 v -0.548 z m 3.4399,-0.8501 h 2.0366 L 64.5362,6.0129 Z m -3.0683,4.4583 V 13.5074 H 61.123 L 63.2666,5.4088 H 62.3204 V 3.9974 h 4.5865 v 1.4114 h -0.946 l 2.1141,8.0986 h 0.6415 v 1.4113 h -3.4452 v -1.4113 h 0.962 L 65.803,11.6793 h -2.5979 l -0.4544,1.8281 h 0.9329 v 1.4113 z M 64.8838,0.1006 h 1.6837 l -2.1302,2.8063 h -0.9649 z m 5.8561,14.8181 v -1.4113 h 1.0743 V 5.3606 H 70.5794 V 7.1889 H 69.2803 V 3.9974 h 6.9761 v 3.1915 h -1.315 V 5.3606 h -1.2348 v 8.1468 h 1.0905 v 1.4113 z" />
  <path
     id="path10280"
     style="fill:#d9dadb;fill-rule:evenodd"
     d="M 3e-4,0.1005 V 23.8989 H 23.7987 V 0.1005 Z" />
  <path
     id="path10282"
     style="fill:#e30016;fill-rule:evenodd"
     d="m 3e-4,17.5527 h 10.3126 0.7933 V 16.7594 7.24 h 3.1732 v 11.8992 l 4.7596,-1.5865 h 4.7597 V 16.7594 H 19.039 V 6.4467 L 14.2794,4.8602 V 6.4467 H 11.1062 10.3129 V 7.24 16.7594 H 3e-4 Z" />
  <path
     id="path10284"
     style="fill:#f8b23a;fill-rule:evenodd"
     d="m 28.9084,23.8456 h -1.7447 v -0.2188 c 0.0828,-0.0227 0.1474,-0.0468 0.195,-0.0717 0.0476,-0.0261 0.0828,-0.0613 0.1055,-0.1066 0.0238,-0.0454 0.0385,-0.1032 0.0453,-0.1724 0.0068,-0.0703 0.0102,-0.1587 0.0102,-0.2644 v -2.8656 c 0,-0.1043 -0.0034,-0.1916 -0.009,-0.2622 -0.0046,-0.0714 -0.0193,-0.1281 -0.0431,-0.1735 -0.0227,-0.0442 -0.0579,-0.0793 -0.1055,-0.1077 -0.0476,-0.0272 -0.1134,-0.0521 -0.1984,-0.0748 v -0.2191 h 1.9375 c 0.2622,0 0.4844,0.0181 0.6673,0.0544 0.1825,0.0377 0.3424,0.0932 0.4799,0.1681 0.1156,0.0623 0.2131,0.1406 0.2925,0.2347 0.0794,0.0941 0.1406,0.2044 0.1837,0.3291 0.0442,0.1247 0.066,0.271 0.066,0.4368 0,0.2166 -0.0388,0.4037 -0.1148,0.5581 -0.0771,0.1554 -0.1803,0.2846 -0.3095,0.3878 -0.1296,0.1024 -0.303,0.1999 -0.5196,0.2906 v 0.0329 c 0.1633,0.0714 0.2993,0.1655 0.4062,0.2848 0.1077,0.118 0.2052,0.2688 0.2914,0.4502 l 0.2086,0.4515 c 0.0933,0.2022 0.1863,0.353 0.2781,0.4539 0.0919,0.1009 0.2007,0.1624 0.328,0.1851 v 0.2188 h -1.2799 c -0.1292,-0.1769 -0.2744,-0.4413 -0.4357,-0.7909 l -0.2596,-0.5683 c -0.0771,-0.169 -0.144,-0.288 -0.1987,-0.3594 -0.0556,-0.0703 -0.1134,-0.1194 -0.1712,-0.1466 -0.059,-0.0261 -0.1497,-0.0397 -0.271,-0.0397 h -0.1931 v 1.071 c 0,0.1658 0.008,0.2826 0.0227,0.3483 0.0159,0.0669 0.0465,0.1202 0.0907,0.1599 0.0445,0.0397 0.1262,0.0751 0.2452,0.1069 z m -0.3586,-4.1408 v 1.847 h 0.3291 c 0.1769,0 0.3235,-0.0238 0.4391,-0.0706 0.1146,-0.0476 0.2064,-0.1145 0.2733,-0.1995 0.068,-0.0851 0.1145,-0.186 0.1397,-0.3005 0.0261,-0.1159 0.0386,-0.2418 0.0386,-0.379 0,-0.3019 -0.0706,-0.5275 -0.2123,-0.6783 -0.1418,-0.1511 -0.3527,-0.2259 -0.6319,-0.2259 -0.1905,0 -0.3155,0.0022 -0.3756,0.0068 z m 5.9684,3.5362 c -0.2256,0.2392 -0.4493,0.4084 -0.6704,0.5082 -0.2222,0.0998 -0.4765,0.1497 -0.7645,0.1497 -0.5162,0 -0.9054,-0.1417 -1.1653,-0.4243 -0.2608,-0.2824 -0.3901,-0.7011 -0.3901,-1.2581 0,-0.3585 0.0669,-0.6681 0.2007,-0.928 0.1338,-0.2608 0.3246,-0.4584 0.5695,-0.5922 0.2463,-0.1338 0.5321,-0.2007 0.8578,-0.2007 0.2018,0 0.3787,0.0227 0.5298,0.0692 0.1519,0.0465 0.2823,0.1111 0.3911,0.195 0.108,0.0828 0.1987,0.1826 0.269,0.3008 0.0839,0.1394 0.1474,0.2993 0.1894,0.4787 0.0442,0.1837 0.068,0.406 0.0692,0.6682 h -2.1067 c 0.0022,0.4005 0.0739,0.6953 0.2145,0.8849 0.1406,0.1894 0.3552,0.2846 0.6432,0.2846 0.1678,0 0.32,-0.0317 0.455,-0.0952 0.1349,-0.0624 0.2812,-0.1735 0.4391,-0.3336 z M 33.621,21.8477 c -0.009,-0.339 -0.0536,-0.591 -0.1329,-0.7577 -0.0794,-0.1658 -0.2075,-0.2486 -0.3855,-0.2486 -0.1704,0 -0.3065,0.0862 -0.4074,0.2589 -0.0998,0.1723 -0.161,0.422 -0.1805,0.7474 z m 3.4668,1.5622 -0.0488,-0.0159 c -0.1825,0.1769 -0.3583,0.3053 -0.5309,0.3847 -0.1712,0.0805 -0.3538,0.1202 -0.5468,0.1202 -0.1905,0 -0.3563,-0.0352 -0.4969,-0.1043 -0.1406,-0.0703 -0.2472,-0.1667 -0.3186,-0.2917 -0.0717,-0.1236 -0.108,-0.2665 -0.108,-0.4286 0,-0.3257 0.1601,-0.5822 0.4799,-0.7693 0.32,-0.1871 0.8067,-0.3053 1.4578,-0.3541 v -0.3152 c 0,-0.2066 -0.0238,-0.3654 -0.0703,-0.4776 -0.0464,-0.1111 -0.1054,-0.1905 -0.1791,-0.2361 -0.0729,-0.0454 -0.1613,-0.0681 -0.2622,-0.0681 -0.1021,0 -0.1905,0.0182 -0.2642,0.0533 -0.0751,0.0352 -0.142,0.1023 -0.2021,0.201 -0.059,0.0986 -0.1032,0.2358 -0.1327,0.4107 H 35.2376 V 20.914 c 0.203,-0.0907 0.3731,-0.161 0.5083,-0.2097 0.1349,-0.0488 0.2687,-0.0885 0.4002,-0.1214 0.1318,-0.0317 0.2498,-0.0544 0.3541,-0.068 0.1043,-0.0125 0.2078,-0.0193 0.3121,-0.0193 0.2687,0 0.4833,0.0352 0.6431,0.1066 0.1611,0.0703 0.2815,0.186 0.3609,0.3447 0.0794,0.1602 0.1191,0.3801 0.1191,0.6616 v 1.2966 c 0,0.1462 0.0034,0.2588 0.0102,0.3393 0.0068,0.0793 0.017,0.1383 0.0317,0.1769 0.0147,0.0396 0.0329,0.0703 0.0544,0.0929 0.0227,0.0238 0.0499,0.0431 0.0817,0.0567 0.0329,0.0151 0.0929,0.0332 0.1817,0.0559 v 0.2188 h -1.2368 z m -0.1089,-1.1333 c -0.3438,0.0091 -0.5978,0.0737 -0.7633,0.1928 -0.1647,0.1205 -0.2475,0.2951 -0.2475,0.5252 0,0.1375 0.0374,0.2418 0.1134,0.3144 0.0751,0.0714 0.1794,0.1077 0.3121,0.1077 0.102,0 0.1984,-0.0272 0.2894,-0.0816 0.0907,-0.0544 0.1633,-0.127 0.2154,-0.2177 0.0533,-0.091 0.0805,-0.1874 0.0805,-0.2894 z m 3.0314,0.6081 c 0,0.2111 0.0068,0.3563 0.0193,0.4356 0.0136,0.0794 0.0408,0.144 0.0816,0.1917 0.0408,0.0476 0.1179,0.0853 0.2316,0.1148 v 0.2188 h -1.6293 v -0.2188 c 0.0671,-0.0159 0.1193,-0.034 0.1567,-0.0559 0.0374,-0.0204 0.0669,-0.0453 0.0873,-0.0725 0.0216,-0.0284 0.0397,-0.0635 0.0556,-0.1066 0.0147,-0.0431 0.0249,-0.1032 0.0295,-0.1792 0.0045,-0.0759 0.0068,-0.1862 0.0068,-0.3279 v -2.5923 c 0,-0.1905 -0.0012,-0.33 -0.0046,-0.4198 C 39.0414,19.7819 39.0346,19.707 39.0244,19.6458 39.0142,19.5857 38.9983,19.5369 38.9745,19.4995 38.9519,19.4632 38.919,19.4338 38.877,19.4122 38.8351,19.3893 38.767,19.37 38.6738,19.3518 V 19.133 l 0.9201,-0.0465 h 0.4164 z m 5.6838,-3.5759 v 1.0573 H 45.238 c -0.0726,-0.2109 -0.135,-0.3527 -0.186,-0.4275 -0.051,-0.074 -0.1125,-0.1329 -0.1828,-0.176 -0.0715,-0.0431 -0.1916,-0.0646 -0.3617,-0.0646 h -0.7251 v 1.595 h 0.4391 c 0.0975,0 0.1734,-0.0136 0.2293,-0.0419 0.0555,-0.0273 0.1009,-0.0737 0.1372,-0.1372 0.0374,-0.0647 0.0714,-0.1647 0.1054,-0.2997 h 0.3756 v 1.3502 h -0.3756 c -0.0317,-0.1293 -0.0657,-0.2271 -0.1031,-0.2951 -0.0375,-0.0669 -0.0828,-0.1157 -0.135,-0.144 -0.0524,-0.0295 -0.1307,-0.0431 -0.2338,-0.0431 h -0.4391 v 1.7742 h 0.7217 c 0.0771,0 0.1428,-0.0045 0.1961,-0.0147 0.0522,-0.0102 0.0998,-0.0272 0.1429,-0.0511 0.042,-0.0249 0.0816,-0.0578 0.1205,-0.0997 0.0397,-0.042 0.0737,-0.0873 0.1032,-0.1361 0.0306,-0.0488 0.0612,-0.1137 0.0952,-0.193 0.0329,-0.0805 0.0692,-0.1894 0.1089,-0.3289 h 0.456 l -0.0635,1.2127 h -3.2672 v -0.2188 c 0.0828,-0.0227 0.1474,-0.0468 0.1951,-0.0717 0.0476,-0.0261 0.0827,-0.0613 0.1054,-0.1066 0.0238,-0.0454 0.0386,-0.1032 0.0454,-0.1724 0.0068,-0.0703 0.0102,-0.1587 0.0102,-0.2644 v -2.8656 c 0,-0.1043 -0.0034,-0.1916 -0.0091,-0.2622 -0.0045,-0.0714 -0.0193,-0.1281 -0.0431,-0.1735 -0.0227,-0.0442 -0.0578,-0.0793 -0.1054,-0.1077 -0.0477,-0.0272 -0.1134,-0.0521 -0.1985,-0.0748 v -0.2191 z m 1.0493,3.4171 c 0.0559,0.2631 0.1489,0.4595 0.2781,0.5899 0.1293,0.1293 0.3201,0.1939 0.5706,0.1939 0.1304,0 0.2472,-0.0215 0.3518,-0.0658 0.1043,-0.0453 0.1882,-0.1168 0.2506,-0.2143 0.0635,-0.0986 0.0952,-0.2225 0.0952,-0.371 0,-0.1372 -0.026,-0.2563 -0.0771,-0.3575 C 48.1616,22.4002 48.08,22.305 47.9677,22.2131 47.8543,22.1224 47.6965,22.026 47.4958,21.9249 47.3223,21.8375 47.1667,21.748 47.0261,21.655 46.8866,21.562 46.7673,21.4597 46.6697,21.3474 46.5711,21.2363 46.494,21.1139 46.4396,20.9812 c -0.0533,-0.1341 -0.0805,-0.2826 -0.0805,-0.4493 0,-0.2724 0.0669,-0.5037 0.2018,-0.6945 0.1349,-0.1905 0.3314,-0.3356 0.5865,-0.4343 0.2565,-0.0977 0.5525,-0.1476 0.8895,-0.1476 0.1973,0 0.3858,0.0102 0.5652,0.0317 0.1792,0.0204 0.3847,0.0578 0.6149,0.1114 v 0.9641 H 48.762 C 48.72,20.1869 48.6656,20.0486 48.601,19.9454 48.5349,19.842 48.4533,19.766 48.3555,19.7172 c -0.0975,-0.0487 -0.22,-0.0725 -0.3685,-0.0725 -0.1259,0 -0.2395,0.0215 -0.3393,0.0657 -0.0998,0.0454 -0.178,0.1111 -0.2358,0.1985 -0.0567,0.0875 -0.0862,0.193 -0.0862,0.3177 0,0.1281 0.0249,0.2395 0.0748,0.3337 0.0499,0.0941 0.1338,0.1859 0.2506,0.2755 0.1179,0.0896 0.2883,0.193 0.5117,0.3075 0.2735,0.1418 0.4881,0.2812 0.6434,0.4176 0.1568,0.136 0.2724,0.2846 0.3461,0.4445 0.0737,0.1612 0.1111,0.3483 0.1111,0.5606 0,0.2722 -0.0623,0.5094 -0.1893,0.7101 -0.1259,0.1996 -0.3098,0.3541 -0.5516,0.4618 -0.2418,0.1077 -0.5208,0.161 -0.8374,0.161 -0.2268,0 -0.4617,-0.0125 -0.7067,-0.0386 -0.2452,-0.0249 -0.4742,-0.0623 -0.6896,-0.1111 v -1.0233 z m 3.936,1.1197 v -0.2188 c 0.0932,-0.0159 0.1669,-0.0363 0.2213,-0.0627 0.0545,-0.0249 0.0953,-0.0612 0.1214,-0.1077 0.0272,-0.0465 0.043,-0.1054 0.0499,-0.178 0.0068,-0.0714 0.0102,-0.161 0.0102,-0.2667 V 19.698 h -0.2688 c -0.134,0 -0.235,0.0147 -0.3064,0.0464 -0.0703,0.0307 -0.1327,0.0794 -0.1848,0.1463 -0.051,0.0661 -0.0964,0.1556 -0.1341,0.2667 -0.0374,0.1123 -0.0692,0.2177 -0.093,0.3178 H 49.639 v -1.1664 h 3.913 v 1.1664 h -0.4561 c -0.042,-0.1511 -0.0748,-0.2611 -0.0998,-0.3325 -0.0238,-0.0703 -0.051,-0.1304 -0.0805,-0.1803 -0.0306,-0.0501 -0.0624,-0.0921 -0.0955,-0.125 -0.0329,-0.0329 -0.0681,-0.0601 -0.1066,-0.0805 -0.0374,-0.0193 -0.0839,-0.034 -0.1406,-0.0442 -0.0567,-0.0102 -0.1304,-0.0147 -0.2211,-0.0147 h -0.2395 v 3.3137 c 0,0.117 0.0034,0.2066 0.0102,0.2667 0.0068,0.0612 0.0181,0.1111 0.0363,0.1485 0.0181,0.0374 0.0396,0.0681 0.0646,0.0907 0.0261,0.0238 0.0612,0.0443 0.1069,0.0635 0.0453,0.0196 0.1065,0.0343 0.1848,0.0457 v 0.2188 z m 5.0156,-1.4057 h -1.4193 l -0.1089,0.3155 c -0.0317,0.0884 -0.0567,0.1746 -0.0771,0.2574 -0.0193,0.083 -0.0295,0.1715 -0.0295,0.2645 0,0.2165 0.1146,0.3336 0.3461,0.3495 v 0.2188 H 52.987 v -0.2188 c 0.0817,-0.0091 0.1531,-0.0386 0.2155,-0.0876 0.0623,-0.0488 0.1182,-0.1145 0.1692,-0.1984 0.051,-0.0851 0.1054,-0.2053 0.1633,-0.3632 l 1.3864,-3.6927 h 0.887 l 1.097,3.7234 c 0.049,0.1658 0.0898,0.2837 0.1227,0.354 0.0329,0.0692 0.076,0.1259 0.1293,0.1689 0.0533,0.0431 0.1281,0.0752 0.2233,0.0956 v 0.2188 h -1.8354 v -0.2188 c 0.1157,-0.0136 0.2007,-0.0457 0.2563,-0.0967 0.0555,-0.051 0.0827,-0.1236 0.0827,-0.2166 0,-0.068 -0.0079,-0.1451 -0.0226,-0.229 -0.0159,-0.0842 -0.0409,-0.1908 -0.0771,-0.3189 z M 54.4029,22.051 h 1.1957 l -0.5309,-1.8709 z m 3.7582,1.7946 v -0.2188 c 0.0933,-0.0159 0.167,-0.0363 0.2214,-0.0627 0.0544,-0.0249 0.0952,-0.0612 0.1213,-0.1077 0.0272,-0.0465 0.0431,-0.1054 0.0499,-0.178 0.0068,-0.0714 0.0102,-0.161 0.0102,-0.2667 V 19.698 h -0.2687 c -0.1341,0 -0.235,0.0147 -0.3064,0.0464 -0.0703,0.0307 -0.1327,0.0794 -0.1848,0.1463 -0.0511,0.0661 -0.0964,0.1556 -0.1341,0.2667 -0.0374,0.1123 -0.0692,0.2177 -0.093,0.3178 h -0.4561 v -1.1664 h 3.9129 v 1.1664 h -0.456 c -0.042,-0.1511 -0.0749,-0.2611 -0.0998,-0.3325 -0.0238,-0.0703 -0.051,-0.1304 -0.0805,-0.1803 -0.0306,-0.0501 -0.0624,-0.0921 -0.0956,-0.125 -0.0328,-0.0329 -0.068,-0.0601 -0.1065,-0.0805 -0.0375,-0.0193 -0.0839,-0.034 -0.1406,-0.0442 C 59.998,19.7025 59.9243,19.698 59.8336,19.698 H 59.594 v 3.3137 c 0,0.117 0.0034,0.2066 0.0102,0.2667 0.0068,0.0612 0.0182,0.1111 0.0363,0.1485 0.0182,0.0374 0.0397,0.0681 0.0646,0.0907 0.0261,0.0238 0.0613,0.0443 0.1069,0.0635 0.0454,0.0196 0.1066,0.0343 0.1848,0.0457 v 0.2188 z m 6.7082,-4.5368 v 1.0573 H 64.4132 C 64.3406,20.1552 64.2783,20.0134 64.2273,19.9386 64.1762,19.8646 64.1147,19.8057 64.0444,19.7626 63.973,19.7195 63.8528,19.698 63.6827,19.698 h -0.7251 v 1.595 h 0.4391 c 0.0975,0 0.1735,-0.0136 0.2293,-0.0419 0.0556,-0.0273 0.1009,-0.0737 0.1372,-0.1372 0.0374,-0.0647 0.0715,-0.1647 0.1055,-0.2997 h 0.3756 v 1.3502 h -0.3756 c -0.0318,-0.1293 -0.0658,-0.2271 -0.1032,-0.2951 -0.0374,-0.0669 -0.0828,-0.1157 -0.1349,-0.144 -0.0525,-0.0295 -0.1307,-0.0431 -0.2339,-0.0431 h -0.4391 v 1.7742 h 0.7217 c 0.0771,0 0.1429,-0.0045 0.1962,-0.0147 0.0521,-0.0102 0.0998,-0.0272 0.1428,-0.0511 0.042,-0.0249 0.0817,-0.0578 0.1205,-0.0997 0.0397,-0.042 0.0737,-0.0873 0.1032,-0.1361 0.0306,-0.0488 0.0612,-0.1137 0.0952,-0.193 0.0329,-0.0805 0.0692,-0.1894 0.1089,-0.3289 h 0.4561 l -0.0635,1.2127 h -3.2672 v -0.2188 c 0.0828,-0.0227 0.1474,-0.0468 0.195,-0.0717 0.0476,-0.0261 0.0828,-0.0613 0.1055,-0.1066 0.0238,-0.0454 0.0385,-0.1032 0.0453,-0.1724 0.0068,-0.0703 0.0102,-0.1587 0.0102,-0.2644 v -2.8656 c 0,-0.1043 -0.0034,-0.1916 -0.0091,-0.2622 -0.0045,-0.0714 -0.0192,-0.1281 -0.043,-0.1735 -0.0227,-0.0442 -0.0579,-0.0793 -0.1055,-0.1077 -0.0476,-0.0272 -0.1134,-0.0521 -0.1984,-0.0748 v -0.2191 z" />
  <path
     id="path10286"
     style="fill:#e30016;fill-rule:evenodd"
     d="m 23.7987,16.7594 v 0.7933 h 53.0015 v -0.7933 z" />
</svg>
