<?xml version="1.0" encoding="UTF-8" standalone="no"?>
<svg
   xmlns:dc="http://purl.org/dc/elements/1.1/"
   xmlns:cc="http://creativecommons.org/ns#"
   xmlns:rdf="http://www.w3.org/1999/02/22-rdf-syntax-ns#"
   xmlns:svg="http://www.w3.org/2000/svg"
   xmlns="http://www.w3.org/2000/svg"
   viewBox="0 0 23.9998 28.7997"
   id="svg11965"
   height="28.7997"
   width="23.9998"
   version="1.1">
  <metadata
     id="metadata11971">
    <rdf:RDF>
      <cc:Work
         rdf:about="">
        <dc:format>image/svg+xml</dc:format>
        <dc:type
           rdf:resource="http://purl.org/dc/dcmitype/StillImage" />
        <dc:title></dc:title>
      </cc:Work>
    </rdf:RDF>
  </metadata>
  <defs
     id="defs11969" />
  <path
     id="path11959"
     style="fill:#ffffff;fill-rule:evenodd"
     d="m 7e-4,-0.0455 v 23.994 h 23.994 v -23.994 z" />
  <path
     id="path11961"
     style="fill:#e30016;fill-rule:evenodd"
     d="m 7e-4,17.5501 h 10.3974 0.7998 V 16.7503 7.1527 h 3.1992 v 11.997 l 4.7988,-1.5996 h 4.7988 V 16.7503 H 19.1959 V 6.3529 L 14.3971,4.7533 v 1.5996 h -3.1992 -0.7998 v 0.7998 9.5976 H 7e-4 Z" />
  <path
     id="path11963"
     style="fill:#ffffff;fill-rule:evenodd"
     d="m 0.3609,24.9994 v 1.1866 0.2121 c 0.1536,-0.1846 0.3214,-0.3206 0.5042,-0.4088 0.1829,-0.0876 0.3875,-0.1315 0.6137,-0.1315 0.4,0 0.7382,0.1437 1.0154,0.4317 0.2764,0.2877 0.415,0.6384 0.415,1.0508 0,0.4255 -0.1415,0.7821 -0.4246,1.0692 -0.2826,0.2869 -0.6375,0.4309 -1.0659,0.4309 -0.21,0 -0.4025,-0.0417 -0.5774,-0.1256 -0.1757,-0.0839 -0.3356,-0.21 -0.4804,-0.3795 v 0.4308 H 9e-4 v -3.7667 z m 0,2.3718 c 0,0.3036 0.1077,0.5675 0.3222,0.7928 0.2146,0.2251 0.4618,0.3374 0.7419,0.3374 0.3053,0 0.5658,-0.1131 0.7804,-0.3393 0.2145,-0.226 0.3223,-0.5049 0.3223,-0.838 0,-0.3152 -0.1069,-0.5816 -0.3215,-0.7999 -0.2134,-0.218 -0.4697,-0.3274 -0.7682,-0.3274 -0.2982,0 -0.5525,0.114 -0.7628,0.3416 -0.2092,0.227 -0.3143,0.5051 -0.3143,0.8328 z m 5.3923,-0.0471 c 0,-0.3018 -0.1077,-0.5649 -0.324,-0.79 -0.2154,-0.2253 -0.4638,-0.3373 -0.7452,-0.3373 -0.3056,0 -0.5661,0.112 -0.7807,0.3373 -0.2146,0.2251 -0.3223,0.504 -0.3223,0.8371 0,0.3169 0.1069,0.5845 0.3215,0.8025 0.2137,0.218 0.4705,0.3277 0.7707,0.3277 0.2905,0 0.5431,-0.1148 0.7577,-0.3453 0.2146,-0.2304 0.3223,-0.5077 0.3223,-0.832 z m 0,0.9908 c -0.114,0.1644 -0.2676,0.2922 -0.4618,0.386 -0.1944,0.0927 -0.4036,0.1395 -0.627,0.1395 -0.4175,0 -0.7653,-0.1432 -1.0429,-0.4283 -0.278,-0.2852 -0.4166,-0.6375 -0.4166,-1.0571 0,-0.4254 0.1422,-0.7812 0.4257,-1.0681 0.2835,-0.2863 0.6384,-0.4291 1.0647,-0.4291 0.2191,0 0.4195,0.0439 0.6021,0.1332 0.1828,0.0893 0.3348,0.2171 0.4558,0.3841 v -0.4538 h 0.3549 v 2.8448 H 5.7532 Z m 1.1594,-0.9757 c 0,0.3285 0.104,0.6032 0.3132,0.8248 0.2083,0.2217 0.4688,0.332 0.779,0.332 0.3052,0 0.5623,-0.1103 0.769,-0.332 0.2075,-0.2216 0.3107,-0.498 0.3107,-0.8291 0,-0.3365 -0.1052,-0.6128 -0.3144,-0.8291 -0.21,-0.2163 -0.4759,-0.3249 -0.7991,-0.3249 -0.2894,0 -0.5386,0.1111 -0.7469,0.3337 -0.2075,0.2225 -0.3115,0.4972 -0.3115,0.8246 z M 6.531,27.3463 c 0,-0.4176 0.1432,-0.7742 0.4292,-1.0701 0.286,-0.2965 0.625,-0.4451 1.0162,-0.4451 0.4125,0 0.7637,0.1457 1.0542,0.4371 0.2906,0.2914 0.4354,0.6384 0.4354,1.0421 0,0.4237 -0.1423,0.7857 -0.4266,1.0859 -0.2843,0.2993 -0.6296,0.4493 -1.0346,0.4493 -0.4116,0 -0.7603,-0.1466 -1.0455,-0.4405 C 6.6742,28.111 6.531,27.7578 6.531,27.3463 Z m 5.6421,-0.5508 c -0.112,-0.2075 -0.2489,-0.3612 -0.4105,-0.4601 -0.1607,-0.0998 -0.3532,-0.1494 -0.5757,-0.1494 -0.2931,0 -0.5422,0.1114 -0.7469,0.334 -0.2041,0.2225 -0.3064,0.4971 -0.3064,0.8246 0,0.3276 0.1023,0.6012 0.3081,0.8211 0.2049,0.22 0.4592,0.3303 0.7611,0.3303 0.2208,0 0.4158,-0.0539 0.5845,-0.1624 0.1695,-0.1086 0.2976,-0.2614 0.3858,-0.4576 h 0.4028 c -0.1105,0.3082 -0.2835,0.5474 -0.5202,0.7161 -0.2358,0.1686 -0.5139,0.2534 -0.8353,0.2534 -0.4113,0 -0.7591,-0.1466 -1.0426,-0.4388 C 9.8943,28.1144 9.752,27.7621 9.752,27.3499 c 0,-0.4203 0.144,-0.7769 0.4309,-1.0692 0.2871,-0.2922 0.6367,-0.4388 1.0482,-0.4388 0.309,0 0.5809,0.0828 0.8159,0.2497 0.2355,0.167 0.4113,0.4017 0.5289,0.7039 z m 3.3378,0.5286 c 0,-0.3018 -0.1077,-0.5649 -0.324,-0.79 -0.2154,-0.2253 -0.4638,-0.3373 -0.7452,-0.3373 -0.3056,0 -0.5661,0.112 -0.7807,0.3373 -0.2146,0.2251 -0.3223,0.504 -0.3223,0.8371 0,0.3169 0.1069,0.5845 0.3215,0.8025 0.2137,0.218 0.4705,0.3277 0.7707,0.3277 0.2905,0 0.5431,-0.1148 0.7577,-0.3453 0.2146,-0.2304 0.3223,-0.5077 0.3223,-0.832 z m 0,0.9908 c -0.114,0.1644 -0.2676,0.2922 -0.4618,0.386 -0.1944,0.0927 -0.4036,0.1395 -0.627,0.1395 -0.4175,0 -0.7653,-0.1432 -1.0429,-0.4283 -0.278,-0.2852 -0.4166,-0.6375 -0.4166,-1.0571 0,-0.4254 0.1423,-0.7812 0.4257,-1.0681 0.2835,-0.2863 0.6384,-0.4291 1.0647,-0.4291 0.2191,0 0.4195,0.0439 0.6021,0.1332 0.1828,0.0893 0.3348,0.2171 0.4558,0.3841 v -0.4538 h 0.3549 v 2.8448 h -0.3549 z m 1.1803,0.4512 V 26.2869 H 16.151 v -0.3656 h 0.5402 v -0.9219 h 0.3657 v 0.9219 h 0.5403 v 0.3656 h -0.5403 v 2.4792 z m 1.5486,0 H 17.869 v -0.6888 h 0.3708 z m 1.9664,0 h -0.3339 l -1.1126,-2.8448 h 0.3861 l 0.9102,2.2938 0.9192,-2.2938 h 0.3963 z m 1.4145,-2.8448 h 0.3549 v 0.3223 c 0.1122,-0.129 0.2421,-0.2251 0.3895,-0.2869 0.1474,-0.0629 0.316,-0.0938 0.5057,-0.0938 0.2095,0 0.3948,0.0388 0.5581,0.1168 0.1624,0.0776 0.2914,0.1888 0.3867,0.3336 0.0654,0.1015 0.1122,0.2217 0.1414,0.3586 0.0281,0.1366 0.0422,0.339 0.0422,0.6066 v 1.4876 H 23.639 v -1.5936 c 0,-0.3365 -0.0644,-0.5803 -0.1925,-0.7319 -0.1287,-0.152 -0.3345,-0.2279 -0.6171,-0.2279 -0.1658,0 -0.3107,0.0334 -0.4363,0.0998 -0.1244,0.066 -0.2233,0.1615 -0.2956,0.286 -0.0451,0.0768 -0.0768,0.1661 -0.0944,0.265 -0.0187,0.0987 -0.0275,0.2719 -0.0275,0.5182 v 1.3844 h -0.3549 z" />
</svg>
