<svg xmlns="http://www.w3.org/2000/svg" width="72.96" height="21.12"><path d="M24.773 10.583h.74c.398 0 .68-.094.85-.28.169-.186.255-.496.255-.929v-.699c0-.38-.086-.652-.258-.817-.171-.166-.453-.25-.847-.25h-.74zm0-4.016h.667c.416 0 .705-.077.864-.232.16-.157.239-.425.239-.81v-.454c0-.305-.082-.533-.243-.684-.161-.148-.41-.221-.75-.221h-.777zm-2.134 5.083v-1.104h.703V4.208h-.703V3.102h3.052c.757 0 1.318.157 1.684.473.366.315.548.799.548 1.447v.3c0 .51-.12.91-.355 1.198-.239.289-.6.475-1.086.56.542.078.939.264 1.19.555.251.293.377.713.377 1.261v.557c0 .757-.176 1.311-.53 1.665-.353.353-.903.531-1.65.531zm8.403-3.49h1.594l-.778-3.48zm-2.401 3.49v-1.104h.546l1.677-6.338h-.74V3.102h3.59v1.104h-.741l1.654 6.339h.502v1.104h-2.696v-1.104h.753l-.337-1.431h-2.033l-.355 1.43h.73v1.105zm11.875-6.152v3.77c0 .838-.207 1.476-.62 1.91-.411.432-1.016.648-1.81.648-.798 0-1.405-.216-1.819-.649-.414-.433-.62-1.07-.62-1.91V5.499c0-.839.206-1.475.62-1.908.414-.433 1.021-.65 1.818-.65.795 0 1.4.217 1.812.65.412.433.619 1.07.619 1.908zm-1.494-.086c0-.441-.075-.761-.224-.964-.148-.203-.387-.304-.713-.304-.328 0-.567.101-.72.304-.15.203-.225.523-.225.964v3.929c0 .441.075.761.226.964.152.203.39.303.72.303.325 0 .564-.1.712-.303.149-.203.224-.523.224-.964zm7.144 3.414v.356c0 .86-.207 1.516-.621 1.968-.412.45-1.015.676-1.804.676-.803 0-1.412-.235-1.824-.7-.414-.47-.62-1.156-.62-2.061V5.927c0-.99.181-1.734.545-2.236.364-.5.91-.751 1.634-.751.307 0 .585.052.837.157.25.104.462.261.635.47V3.1h1.08v2.577H44.86l-.013-.226c-.031-.437-.127-.764-.29-.981-.166-.216-.4-.325-.708-.325-.362 0-.63.11-.8.33-.175.216-.26.56-.26 1.024v3.77c0 .464.085.805.255 1.018.171.216.44.322.805.322.354 0 .62-.112.795-.34.178-.227.266-.565.266-1.013v-.429zm2.692-.665h1.594l-.778-3.48zm-2.401 3.49v-1.105h.546l1.677-6.338h-.74V3.102h3.59v1.104h-.741l1.654 6.339h.503v1.104h-2.697v-1.104h.753l-.337-1.431h-2.033l-.355 1.43h.73v1.105zm7.386 0v-1.105h.841V4.17h-.967V5.6h-1.016V3.103h5.46V5.6h-1.03V4.17h-.966v6.376h.853v1.104zM57.784 11c0-.205.075-.381.224-.532a.723.723 0 0 1 .53-.224.72.72 0 0 1 .528.222.725.725 0 0 1 .224.534.714.714 0 0 1-.226.529.727.727 0 0 1-.527.222.729.729 0 0 1-.527-.224.724.724 0 0 1-.226-.527zm4.53.738l-1.938-7.53h-.486V3.102h2.523v1.104h-.577l1.03 5.033 1.064-5.033h-.613V3.103h2.41v1.104h-.528l-1.845 7.531zm3.825-.088v-1.104h.703V4.208h-.703V3.102h2.209L70.62 8.95V4.207h-.676V3.103h2.583v1.104h-.703v7.491H70.56l-2.487-6.35v5.198h.663v1.104z" fill="#e30016" fill-rule="evenodd"/><path d="M-.008 0v20.048H20.04V0z" fill="#fff" fill-rule="evenodd"/><path d="M-.008 14.702h9.356V6.014h2.673v10.024l4.01-1.336h56.937v-.668H16.03V5.345l-4.009-1.337v1.337H8.68v8.689H-.008z" fill="#e30016" fill-rule="evenodd"/><path d="M25.079 18.268c.238.076.42.185.546.327a.748.748 0 0 1 .189.513c0 .17-.03.319-.087.446a.754.754 0 0 1-.26.31 1.196 1.196 0 0 1-.412.179c-.159.037-.36.056-.603.056h-1.577v-.169a.752.752 0 0 0 .15-.055.188.188 0 0 0 .081-.082.363.363 0 0 0 .035-.133 2.13 2.13 0 0 0 .008-.203V17.25c0-.08-.002-.148-.007-.202a.327.327 0 0 0-.033-.134.206.206 0 0 0-.081-.083.656.656 0 0 0-.153-.057v-.169h1.676c.192 0 .348.01.468.028.161.025.3.07.418.133a.618.618 0 0 1 .248.241.74.74 0 0 1 .09.371c0 .386-.232.675-.696.868zm-.796-.132a.91.91 0 0 0 .402-.074c.097-.05.17-.12.221-.212a.783.783 0 0 0 .075-.377.608.608 0 0 0-.081-.337.453.453 0 0 0-.233-.178 1.137 1.137 0 0 0-.377-.053c-.119 0-.235.004-.348.012v1.219zm-.34 1.655c.1.006.216.008.347.008.163 0 .296-.02.401-.06a.474.474 0 0 0 .245-.21.82.82 0 0 0 .086-.41.967.967 0 0 0-.045-.317.487.487 0 0 0-.14-.212.568.568 0 0 0-.22-.118 1.178 1.178 0 0 0-.319-.037h-.356zm4.1-.775h-1.094l-.084.243a2.01 2.01 0 0 0-.059.199.888.888 0 0 0-.023.203c0 .167.089.257.267.27v.168h-1.093v-.169a.322.322 0 0 0 .166-.067.563.563 0 0 0 .13-.153 1.69 1.69 0 0 0 .126-.28l1.068-2.843h.683l.844 2.867c.038.127.07.218.095.273a.368.368 0 0 0 .1.13c.04.033.098.057.172.073v.169h-1.414v-.169a.347.347 0 0 0 .198-.074.219.219 0 0 0 .063-.167c0-.052-.006-.112-.017-.176a2.853 2.853 0 0 0-.06-.246zm-.996-.3h.921l-.409-1.44zm2.478-3.404v.172l-.88.54-.168-.179.462-.533zm-1.523.219l.557.641-.181.172-.576-.427h-.028l-.578.424-.177-.171.563-.64zm1.94 4.568v-.169a.662.662 0 0 0 .17-.048.2.2 0 0 0 .093-.083.328.328 0 0 0 .039-.137 2.18 2.18 0 0 0 .008-.205v-2.552h-.207a.593.593 0 0 0-.236.036.361.361 0 0 0-.143.112.7.7 0 0 0-.103.205 2.968 2.968 0 0 0-.071.245h-.352v-.898h3.014v.898h-.352a4.694 4.694 0 0 0-.077-.256.553.553 0 0 0-.135-.235.355.355 0 0 0-.082-.062.397.397 0 0 0-.108-.034 1.034 1.034 0 0 0-.17-.011h-.185v2.552c0 .09.003.159.008.205a.367.367 0 0 0 .028.115c.014.028.03.052.05.07a.29.29 0 0 0 .082.048.6.6 0 0 0 .142.035v.169zm5.134-3.494c.284 0 .523.022.713.066.192.045.362.115.51.21a1.265 1.265 0 0 1 .563.803c.045.175.067.372.067.592 0 .267-.032.505-.094.717a1.48 1.48 0 0 1-.28.542 1.32 1.32 0 0 1-.408.333 1.79 1.79 0 0 1-.557.185c-.18.03-.409.046-.683.046h-1.162v-.169a.758.758 0 0 0 .15-.055.194.194 0 0 0 .082-.082.376.376 0 0 0 .034-.133 2.25 2.25 0 0 0 .008-.203V18.43h-.438v-.322h.438v-.858c0-.08-.002-.148-.007-.202a.355.355 0 0 0-.033-.134.214.214 0 0 0-.082-.083.673.673 0 0 0-.152-.057v-.169zm.407 1.825h-.671v1.36a2.4 2.4 0 0 0 .233.007c.128 0 .24-.013.338-.039a.81.81 0 0 0 .248-.105.81.81 0 0 0 .187-.171 1.09 1.09 0 0 0 .153-.27 1.72 1.72 0 0 0 .1-.377c.022-.144.034-.31.034-.497 0-.325-.044-.594-.131-.808a.973.973 0 0 0-.367-.473 1.029 1.029 0 0 0-.567-.152c-.106 0-.182.001-.228.005v1.198h.67zm3.488 1.71c-.501 0-.878-.147-1.13-.44-.251-.294-.377-.733-.377-1.319 0-.383.06-.712.183-.984.122-.272.301-.48.539-.62a1.62 1.62 0 0 1 .846-.213c.51 0 .894.147 1.15.44.256.291.384.726.384 1.303 0 .322-.038.6-.114.83a1.498 1.498 0 0 1-.324.57 1.27 1.27 0 0 1-.503.328c-.195.07-.413.105-.654.105zm-.693-1.828c0 .516.062.9.186 1.15.123.252.312.378.567.378a.533.533 0 0 0 .334-.105.764.764 0 0 0 .225-.298c.056-.127.098-.277.122-.451.025-.175.038-.365.038-.574a3.79 3.79 0 0 0-.082-.854c-.053-.229-.134-.402-.242-.519a.543.543 0 0 0-.416-.175c-.248 0-.432.118-.552.355-.12.235-.18.6-.18 1.093zm.961-2.782l.579.643-.182.171-.609-.427H39l-.614.427-.177-.172.587-.642zm.125 4.963v.627h-.702v-.627zm4.821-3.888v.169a.948.948 0 0 0-.144.056.224.224 0 0 0-.073.062.29.29 0 0 0-.044.116 1.39 1.39 0 0 0-.015.24v2.85h-.65l-1.152-1.99a9.976 9.976 0 0 1-.343-.635h-.023c.017.367.026.754.026 1.162v.824c0 .128.006.218.018.268a.235.235 0 0 0 .07.122c.033.03.095.057.188.081v.169h-.968v-.169a.653.653 0 0 0 .15-.057.198.198 0 0 0 .082-.083.371.371 0 0 0 .034-.131 2.03 2.03 0 0 0 .008-.2v-2.214c0-.128-.005-.216-.016-.265a.233.233 0 0 0-.07-.121.465.465 0 0 0-.188-.085v-.169h1.037l.906 1.574a14.154 14.154 0 0 1 .46.88h.041a29.556 29.556 0 0 1-.028-1.336v-.476c0-.11-.004-.19-.013-.24a.266.266 0 0 0-.039-.113.212.212 0 0 0-.072-.064.752.752 0 0 0-.15-.056v-.169zm3.142.094v.727h-.35a1.208 1.208 0 0 0-.134-.33.469.469 0 0 0-.194-.175.702.702 0 0 0-.306-.057.698.698 0 0 0-.448.154c-.13.104-.233.269-.308.495a2.761 2.761 0 0 0-.113.858c0 .299.026.558.076.777.05.22.127.389.23.51a.486.486 0 0 0 .384.182c.15 0 .26-.044.332-.134.072-.09.107-.233.107-.428v-.098c0-.13-.003-.222-.012-.278a.32.32 0 0 0-.04-.124.21.21 0 0 0-.07-.066.786.786 0 0 0-.154-.06v-.169h1.31v.17a.403.403 0 0 0-.173.086.266.266 0 0 0-.063.13c-.011.054-.017.13-.017.227v.964l-.368.077-.174-.184a1.306 1.306 0 0 1-.7.187c-.497 0-.87-.146-1.114-.437-.245-.29-.367-.731-.367-1.322 0-.31.044-.583.13-.818a1.433 1.433 0 0 1 .884-.897c.194-.068.402-.102.624-.102.374 0 .717.045 1.028.136zm2.178 2.537c.043.203.115.354.214.455.1.1.247.15.44.15.1 0 .19-.018.27-.052a.427.427 0 0 0 .194-.165.517.517 0 0 0 .073-.285.601.601 0 0 0-.06-.275.703.703 0 0 0-.188-.222 2.103 2.103 0 0 0-.364-.222 3.613 3.613 0 0 1-.361-.208 1.353 1.353 0 0 1-.274-.237.99.99 0 0 1-.178-.282.924.924 0 0 1-.062-.346c0-.21.052-.388.156-.535a.962.962 0 0 1 .451-.334 1.92 1.92 0 0 1 .685-.114 3.623 3.623 0 0 1 .909.11v.743h-.35a1.082 1.082 0 0 0-.125-.322.474.474 0 0 0-.188-.175.631.631 0 0 0-.284-.056.642.642 0 0 0-.261.05.423.423 0 0 0-.182.153.44.44 0 0 0-.067.245c0 .099.02.184.058.257a.678.678 0 0 0 .193.212c.091.069.222.148.394.237.21.109.376.216.496.321.12.105.21.22.266.343.057.124.086.268.086.431a1 1 0 0 1-.146.547.938.938 0 0 1-.425.356 1.569 1.569 0 0 1-.645.124 5.135 5.135 0 0 1-1.075-.116v-.788zm4.11-.22h-1.092l-.084.243a2.01 2.01 0 0 0-.06.199.888.888 0 0 0-.022.203c0 .167.088.257.266.27v.168H51.53v-.169a.322.322 0 0 0 .167-.067.563.563 0 0 0 .13-.153 1.69 1.69 0 0 0 .125-.28l1.068-2.843h.683l.845 2.867c.038.127.07.218.094.273a.368.368 0 0 0 .1.13.41.41 0 0 0 .172.073v.169H53.5v-.169a.347.347 0 0 0 .198-.074.216.216 0 0 0 .064-.167.973.973 0 0 0-.018-.176 2.816 2.816 0 0 0-.06-.246zm-.994-.3h.92l-.408-1.44zm.6-2.3v-.02c0-.065.014-.12.044-.167.031-.048.065-.095.102-.14.037-.045.07-.091.101-.139a.298.298 0 0 0 .046-.164c0-.058-.014-.102-.04-.131a.139.139 0 0 0-.11-.046.182.182 0 0 0-.132.049c-.034.032-.055.096-.063.192h-.272v-.277c.092-.044.18-.08.264-.106a.882.882 0 0 1 .592.026.327.327 0 0 1 .115.09c.03.038.046.085.046.141 0 .052-.01.098-.032.138a.55.55 0 0 1-.075.115.954.954 0 0 1-.098.1 1.248 1.248 0 0 0-.1.097.565.565 0 0 0-.074.104.243.243 0 0 0-.031.123v.014zm5.094.19v.168a.943.943 0 0 0-.144.056.225.225 0 0 0-.072.062.29.29 0 0 0-.045.116 1.39 1.39 0 0 0-.015.24v2.85h-.65l-1.152-1.99a9.75 9.75 0 0 1-.343-.635h-.023c.017.367.026.753.026 1.162v.824c0 .128.006.218.018.268a.234.234 0 0 0 .07.122c.034.03.095.057.188.081v.169h-.968v-.169a.65.65 0 0 0 .15-.057.198.198 0 0 0 .082-.083.371.371 0 0 0 .035-.131c.005-.053.007-.12.007-.2v-2.214c0-.128-.005-.216-.016-.265a.233.233 0 0 0-.07-.122.465.465 0 0 0-.188-.084v-.169h1.037l.906 1.574a13.943 13.943 0 0 1 .46.88h.042a29.703 29.703 0 0 1-.028-1.336v-.476c0-.11-.005-.19-.013-.24a.264.264 0 0 0-.04-.113.213.213 0 0 0-.072-.064.756.756 0 0 0-.149-.056v-.169z" fill="#f8b23a" fill-rule="evenodd"/></svg>