<?xml version="1.0" encoding="UTF-8" standalone="no"?>
<svg
   xmlns:dc="http://purl.org/dc/elements/1.1/"
   xmlns:cc="http://creativecommons.org/ns#"
   xmlns:rdf="http://www.w3.org/1999/02/22-rdf-syntax-ns#"
   xmlns:svg="http://www.w3.org/2000/svg"
   xmlns="http://www.w3.org/2000/svg"
   viewBox="0 0 61.4398 47.039799"
   id="svg1623"
   height="47.039799"
   width="61.4398"
   version="1.1">
  <metadata
     id="metadata1629">
    <rdf:RDF>
      <cc:Work
         rdf:about="">
        <dc:format>image/svg+xml</dc:format>
        <dc:type
           rdf:resource="http://purl.org/dc/dcmitype/StillImage" />
        <dc:title></dc:title>
      </cc:Work>
    </rdf:RDF>
  </metadata>
  <defs
     id="defs1627" />
  <path
     d="m 37.6376,12.2155 c -2.2812,1.5905 -3.7561,3.6945 -4.748,6.2967 -0.6576,1.7252 -1.0639,3.5617 -1.3297,5.3856 -0.3075,2.1101 -0.4372,4.2617 -0.4707,6.398 2.5847,-2.8361 4.9265,-6.1618 6.1378,-9.8028 0.8909,-2.6778 1.1474,-5.5365 0.4106,-8.2775 z"
     style="fill:#faa619;fill-rule:evenodd"
     id="path1576" />
  <path
     d="M 37.4693,10.6024 C 35.907,6.8074 32.7146,4.0176 30.7199,0.0283 c -1.9947,3.9893 -5.1871,6.7791 -6.7494,10.5741 0.1607,0.0986 0.3204,0.2008 0.4786,0.3076 2.6658,1.8009 4.5248,4.4102 5.7003,7.3794 0.2548,0.6437 0.4769,1.3014 0.6694,1.9696 0.2054,-0.7743 0.4446,-1.5306 0.7229,-2.2606 1.1213,-2.9416 2.8286,-5.3182 5.449,-7.0884 0.1582,-0.1068 0.3179,-0.209 0.4786,-0.3076 z"
     style="fill:#ee3f21;fill-rule:evenodd"
     id="path1578" />
  <path
     d="m 48.2364,21.1088 c -2.7699,-0.248 -5.2522,0.4158 -7.6847,1.7715 -1.6127,0.8989 -3.1045,2.0446 -4.4804,3.2709 -1.592,1.4188 -3.0743,2.9836 -4.4732,4.5987 3.8031,-0.5112 7.7347,-1.5535 11.003,-3.5641 2.4153,-1.4858 4.4334,-3.4926 5.6353,-6.077 z"
     style="fill:#abc228;fill-rule:evenodd"
     id="path1580" />
  <path
     d="m 32.1491,32.1297 c 8.051,4.8975 14.3954,5.0007 18.8233,2.8449 4.215,-2.0521 6.4806,-6.2124 10.4673,-9.1693 -4.2751,-1.2717 -7.5768,-3.9311 -11.5855,-4.8107 -0.0692,0.1754 -0.142,0.3504 -0.2198,0.5247 -1.3106,2.938 -3.5575,5.2219 -6.2774,6.8951 -3.345,2.0577 -7.3145,3.1594 -11.2079,3.7153 z"
     style="fill:#7da630;fill-rule:evenodd"
     id="path1582" />
  <path
     d="m 49.1443,19.7649 c 1.2426,-3.9114 0.5903,-8.1005 1.6265,-12.4386 -4.0922,1.7738 -8.331,1.8588 -11.9672,3.7618 0.0597,0.1788 0.1164,0.3597 0.1689,0.5432 0.8804,3.0785 0.6266,6.3012 -0.3767,9.317 -0.2186,0.657 -0.4713,1.3037 -0.7534,1.9393 0.6552,-0.4612 1.3245,-0.8868 2.007,-1.2673 2.7498,-1.5326 5.5853,-2.2557 8.7305,-1.9274 0.1899,0.0198 0.3778,0.0442 0.5644,0.072 z"
     style="fill:#ffc20c;fill-rule:evenodd"
     id="path1584" />
  <path
     d="m 23.8021,12.2156 c -0.7222,2.6756 -0.499,5.255 0.4102,7.8755 0.6051,1.7443 1.4744,3.4123 2.4432,4.9803 1.1208,1.8141 2.4044,3.5457 3.752,5.2037 0.1569,-3.834 -0.1868,-7.8869 -1.5993,-11.4547 -1.0438,-2.6366 -2.6697,-4.9724 -5.0061,-6.6048 z"
     style="fill:#f36e1e;fill-rule:evenodd"
     id="path1586" />
  <path
     d="M 22.6362,11.0881 C 19,9.1851 14.7613,9.1001 10.669,7.3263 c 1.0363,4.3381 0.384,8.5272 1.6265,12.4386 0.1866,-0.0278 0.3745,-0.0522 0.5644,-0.072 3.193,-0.3333 6.3068,0.4731 9.11,1.9889 0.609,0.3293 1.2019,0.6903 1.7789,1.0785 -0.3404,-0.7252 -0.6433,-1.4583 -0.8993,-2.1964 -1.0281,-2.9633 -1.2486,-5.903 -0.3822,-8.9326 0.0525,-0.1835 0.1092,-0.3644 0.1689,-0.5432 z"
     style="fill:#94003a;fill-rule:evenodd"
     id="path1588" />
  <path
     d="m 29.872,30.6974 c -2.3443,-3.0379 -5.2127,-5.9216 -8.5882,-7.7468 -2.4891,-1.3459 -5.2465,-2.0923 -8.0804,-1.8417 1.1701,2.5228 2.9861,4.3406 5.3765,5.7693 1.5848,0.9472 3.3229,1.6663 5.0729,2.2447 2.0247,0.6693 4.121,1.1706 6.2192,1.5745 z"
     style="fill:#f399bf;fill-rule:evenodd"
     id="path1590" />
  <path
     d="m 11.5856,20.9946 c -4.0087,0.8796 -7.3104,3.539 -11.5855,4.8107 3.9867,2.9569 6.2523,7.1172 10.4673,9.1693 4.4457,2.1644 9.8845,1.884 18.7758,-2.9299 C 25.3571,31.278 21.1923,30.1201 17.8399,28.1164 15.1377,26.5014 13.0937,24.4073 11.8054,21.5193 11.7276,21.345 11.6548,21.17 11.5856,20.9946 Z"
     style="fill:#ee5999;fill-rule:evenodd"
     id="path1592" />
  <path
     id="path1595"
     style="fill:#ee5999;fill-rule:evenodd"
     d="m 2.9924,46.1226 v 0.0149 c 0.2765,-0.2173 0.4148,-0.5506 0.4148,-1 0,-0.2962 -0.0778,-0.574 -0.2334,-0.8332 C 3.0183,44.045 2.8121,43.8537 2.5554,43.7302 L 2.0887,43.508 3.1924,42.8711 C 2.9751,42.6093 2.5603,42.4785 1.948,42.4785 c -0.7851,0 -1.1777,0.2963 -1.1777,0.8888 l 0.0074,3.6294 H 0.0074 L 0,43.4932 c 0,-0.5481 0.195,-0.9604 0.5851,-1.2369 0.3408,-0.237 0.795,-0.3555 1.3629,-0.3555 0.5185,0 0.953,0.0765 1.3036,0.2296 0.4543,0.2024 0.7284,0.5209 0.8222,0.9554 l -0.7111,0.4148 c 0.5432,0.4296 0.8148,0.9753 0.8148,1.6369 0,0.5432 -0.179,0.9901 -0.537,1.3407 -0.358,0.3506 -0.8111,0.5234 -1.3592,0.5185 H 2.1776 c -0.0049,0 -0.0148,0.0024 -0.0296,0.0074 -0.0148,0 -0.0247,0 -0.0296,0 -0.242,0 -0.4482,-0.0864 -0.6185,-0.2593 -0.1704,-0.1728 -0.2555,-0.3802 -0.2555,-0.6222 0,-0.237 0.0851,-0.4419 0.2555,-0.6147 0.1703,-0.1728 0.3765,-0.2593 0.6185,-0.2593 0.2419,0 0.4493,0.0865 0.6221,0.2593 0.1729,0.1728 0.2568,0.3777 0.2519,0.6147 z m -0.5037,0 c 0,-0.0987 -0.037,-0.1851 -0.1111,-0.2592 -0.0741,-0.0741 -0.1605,-0.1111 -0.2592,-0.1111 -0.0988,0 -0.1852,0.037 -0.2593,0.1111 -0.074,0.0741 -0.1111,0.1605 -0.1111,0.2592 0,0.1037 0.0371,0.1914 0.1111,0.263 0.0741,0.0716 0.1605,0.1074 0.2593,0.1074 0.0987,0 0.1851,-0.0358 0.2592,-0.1074 0.0741,-0.0716 0.1111,-0.1593 0.1111,-0.263 z" />
  <path
     id="path1597"
     style="fill:#ee5999;fill-rule:evenodd"
     d="m 8.029,46.1226 c 0,0.242 -0.0864,0.4494 -0.2592,0.6222 -0.1728,0.1729 -0.3802,0.2593 -0.6222,0.2593 -0.0839,0 -0.121,0 -0.1111,0 C 6.3798,46.9892 5.8588,46.8609 5.4737,46.6189 4.9996,46.3177 4.7626,45.856 4.7626,45.2338 c 0,-0.5629 0.242,-0.9925 0.7259,-1.2888 0.4049,-0.2518 0.9061,-0.3777 1.5036,-0.3777 0.4938,0 0.9382,0.1086 1.3332,0.3259 v -0.6444 c 0,-0.2518 -0.1753,-0.4518 -0.5259,-0.6 -0.2765,-0.1135 -0.5604,-0.1703 -0.8518,-0.1703 -0.3456,0 -0.6888,0.0827 -1.0295,0.2481 -0.3407,0.1654 -0.6099,0.3839 -0.8074,0.6555 H 5.1033 v -0.911 c 0.5481,-0.3802 1.1629,-0.5703 1.8443,-0.5703 0.4889,0 0.9456,0.1037 1.3703,0.311 0.5284,0.2568 0.7925,0.6025 0.7925,1.037 L 9.0956,46.9967 8.3253,47.0041 V 44.8413 C 8.2315,44.6092 8.0463,44.4314 7.7698,44.308 7.5377,44.1993 7.2785,44.145 6.9921,44.145 c -0.4099,0 -0.7407,0.0766 -0.9925,0.2296 -0.3111,0.1926 -0.4667,0.479 -0.4667,0.8592 0,0.5679 0.2543,0.9333 0.7629,1.0962 -0.0148,-0.0691 -0.0222,-0.1382 -0.0222,-0.2074 0,-0.237 0.0864,-0.4419 0.2592,-0.6147 0.1729,-0.1728 0.3778,-0.2593 0.6148,-0.2593 0.242,0 0.4494,0.0865 0.6222,0.2593 0.1728,0.1728 0.2592,0.3777 0.2592,0.6147 z m -0.511,0 c 0,-0.0987 -0.0358,-0.1851 -0.1074,-0.2592 -0.0716,-0.0741 -0.1593,-0.1111 -0.263,-0.1111 -0.0987,0 -0.1852,0.037 -0.2592,0.1111 -0.0741,0.0741 -0.1111,0.1605 -0.1111,0.2592 0,0.1037 0.037,0.1914 0.1111,0.263 0.074,0.0716 0.1605,0.1074 0.2592,0.1074 0.1037,0 0.1914,-0.0358 0.263,-0.1074 0.0716,-0.0716 0.1074,-0.1593 0.1074,-0.263 z" />
  <path
     id="path1599"
     style="fill:#ee5999;fill-rule:evenodd"
     d="m 13.6508,46.9967 h -2.5331 c -0.3802,0 -0.7061,-0.0815 -0.9777,-0.2445 C 9.819,46.5547 9.6585,46.2757 9.6585,45.9153 l 0.0074,-2.6517 c 0,-0.4395 0.2642,-0.7876 0.7926,-1.0443 0.4246,-0.2074 0.8814,-0.3111 1.3702,-0.3111 0.6667,0 1.2715,0.1851 1.8147,0.5555 v 0.9036 c -0.2172,-0.2716 -0.4876,-0.4864 -0.811,-0.6444 -0.3235,-0.158 -0.658,-0.237 -1.0037,-0.237 -0.2962,0 -0.5826,0.0592 -0.8592,0.1778 -0.3555,0.1481 -0.5332,0.3481 -0.5332,0.5999 l 0.0074,2.6443 c 0,0.3407 0.2271,0.511 0.6814,0.511 h 2.5257 z" />
  <path
     id="path1601"
     style="fill:#ee5999;fill-rule:evenodd"
     d="m 14.7248,46.9967 h -0.7703 v -2.111 0 -0.0296 -4.733 h 0.7703 v 2.8813 c 0.2568,-0.3407 0.5481,-0.6148 0.874,-0.8222 0.2963,-0.1876 0.5605,-0.2814 0.7926,-0.2814 0.3604,0 0.6814,0.1061 0.9628,0.3185 0.3062,0.232 0.4593,0.5258 0.4593,0.8814 v 3.0219 c 0,0.242 -0.0864,0.4494 -0.2593,0.6222 -0.1728,0.1729 -0.3777,0.2593 -0.6147,0.2593 -0.242,0 -0.4494,-0.0864 -0.6222,-0.2593 -0.1728,-0.1728 -0.2592,-0.3802 -0.2592,-0.6222 0,-0.237 0.0864,-0.4419 0.2592,-0.6147 0.1728,-0.1728 0.3802,-0.2593 0.6222,-0.2593 0.0345,0 0.0691,0.0025 0.1037,0.0075 v -2.1554 c 0,-0.1729 -0.0642,-0.3198 -0.1926,-0.4407 -0.1284,-0.121 -0.279,-0.1815 -0.4518,-0.1815 -0.1185,0 -0.2568,0.0592 -0.4148,0.1778 -0.3309,0.2468 -0.6086,0.574 -0.8333,0.9814 -0.2247,0.4073 -0.3666,0.8233 -0.4259,1.248 z m 2.585,-0.8741 c 0,-0.0987 -0.037,-0.1851 -0.1111,-0.2592 -0.0741,-0.0741 -0.1605,-0.1111 -0.2592,-0.1111 -0.1037,0 -0.1914,0.037 -0.263,0.1111 -0.0716,0.0741 -0.1074,0.1605 -0.1074,0.2592 0,0.1037 0.0358,0.1914 0.1074,0.263 0.0716,0.0716 0.1593,0.1074 0.263,0.1074 0.0987,0 0.1851,-0.0358 0.2592,-0.1074 0.0741,-0.0716 0.1111,-0.1593 0.1111,-0.263 z" />
  <path
     id="path1603"
     style="fill:#94003a;fill-rule:evenodd"
     d="m 19.1689,46.9967 h -0.7703 v -2.111 0 -0.0296 -4.733 h 0.7703 v 2.8813 c 0.2568,-0.3407 0.5481,-0.6148 0.874,-0.8222 0.2963,-0.1876 0.5605,-0.2814 0.7926,-0.2814 0.3604,0 0.6814,0.1061 0.9629,0.3185 0.3061,0.232 0.4592,0.5258 0.4592,0.8814 v 3.0219 c 0,0.242 -0.0864,0.4494 -0.2593,0.6222 -0.1728,0.1729 -0.3777,0.2593 -0.6147,0.2593 -0.242,0 -0.4494,-0.0864 -0.6222,-0.2593 -0.1728,-0.1728 -0.2592,-0.3802 -0.2592,-0.6222 0,-0.237 0.0864,-0.4419 0.2592,-0.6147 0.1728,-0.1728 0.3802,-0.2593 0.6222,-0.2593 0.0345,0 0.0691,0.0025 0.1037,0.0075 v -2.1554 c 0,-0.1729 -0.0642,-0.3198 -0.1926,-0.4407 -0.1284,-0.121 -0.279,-0.1815 -0.4518,-0.1815 -0.1185,0 -0.2568,0.0592 -0.4148,0.1778 -0.3308,0.2468 -0.6086,0.574 -0.8333,0.9814 -0.2247,0.4073 -0.3666,0.8233 -0.4259,1.248 z m 2.585,-0.8741 c 0,-0.0987 -0.037,-0.1851 -0.1111,-0.2592 -0.0741,-0.0741 -0.1605,-0.1111 -0.2592,-0.1111 -0.1037,0 -0.1914,0.037 -0.263,0.1111 -0.0716,0.0741 -0.1074,0.1605 -0.1074,0.2592 0,0.1037 0.0358,0.1914 0.1074,0.263 0.0716,0.0716 0.1593,0.1074 0.263,0.1074 0.0987,0 0.1851,-0.0358 0.2592,-0.1074 0.0741,-0.0716 0.1111,-0.1593 0.1111,-0.263 z" />
  <path
     id="path1605"
     style="fill:#94003a;fill-rule:evenodd"
     d="m 27.1979,43.2488 v 1.8147 c 0,0.4987 -0.0024,0.7728 -0.0074,0.8221 -0.0098,0.3802 -0.1654,0.6666 -0.4666,0.8592 -0.2568,0.1729 -0.5851,0.2593 -0.9851,0.2593 l -1.4147,-0.0074 c -0.3802,0 -0.7061,-0.0815 -0.9777,-0.2445 -0.316,-0.1925 -0.4741,-0.4691 -0.4741,-0.8295 l 0.0075,-2.6739 c 0,-0.4395 0.2617,-0.7876 0.7851,-1.0444 0.4246,-0.2074 0.8814,-0.3111 1.3702,-0.3111 0.4889,0 0.9457,0.1037 1.3703,0.3111 0.5284,0.2568 0.7925,0.6049 0.7925,1.0444 z m -0.7703,2.6516 -0.0074,-2.6516 c 0,-0.2518 -0.1777,-0.4518 -0.5333,-0.6 -0.2765,-0.1185 -0.5604,-0.1777 -0.8518,-0.1777 -0.2962,0 -0.5826,0.0592 -0.8591,0.1777 -0.3506,0.1482 -0.5259,0.3482 -0.5259,0.6 v 2.6665 c 0,0.3407 0.2296,0.511 0.6888,0.511 h 1.3999 c 0.4592,0 0.6888,-0.1753 0.6888,-0.5259 z m -0.5333,-1.4295 c 0,0.242 -0.0864,0.4481 -0.2592,0.6185 -0.1728,0.1704 -0.3802,0.2555 -0.6222,0.2555 -0.237,0 -0.4419,-0.0851 -0.6147,-0.2555 -0.1729,-0.1704 -0.2593,-0.3765 -0.2593,-0.6185 0,-0.2419 0.0864,-0.4481 0.2593,-0.6184 0.1728,-0.1704 0.3777,-0.2556 0.6147,-0.2556 0.242,0 0.4494,0.0852 0.6222,0.2556 0.1728,0.1703 0.2592,0.3765 0.2592,0.6184 z m -0.511,0 c 0,-0.0987 -0.0358,-0.1851 -0.1074,-0.2592 -0.0716,-0.0741 -0.1593,-0.1111 -0.263,-0.1111 -0.0987,0 -0.1851,0.037 -0.2592,0.1111 -0.0741,0.0741 -0.1111,0.1605 -0.1111,0.2592 0,0.0988 0.037,0.1852 0.1111,0.2593 0.0741,0.074 0.1605,0.1111 0.2592,0.1111 0.1037,0 0.1914,-0.0371 0.263,-0.1111 0.0716,-0.0741 0.1074,-0.1605 0.1074,-0.2593 z" />
  <path
     id="path1607"
     style="fill:#94003a;fill-rule:evenodd"
     d="m 31.0495,46.1226 c 0,0.242 -0.0864,0.4494 -0.2592,0.6222 -0.1729,0.1729 -0.3803,0.2593 -0.6222,0.2593 -0.0839,0 -0.121,0 -0.1111,0 -0.6568,-0.0149 -1.1777,-0.1432 -1.5629,-0.3852 -0.474,-0.3012 -0.711,-0.7629 -0.711,-1.3851 0,-0.5629 0.2419,-0.9925 0.7259,-1.2888 0.4049,-0.2518 0.9061,-0.3777 1.5035,-0.3777 0.4938,0 0.9383,0.1086 1.3333,0.3259 v -0.6444 c 0,-0.2518 -0.1753,-0.4518 -0.5259,-0.6 -0.2765,-0.1135 -0.5605,-0.1703 -0.8518,-0.1703 -0.3456,0 -0.6888,0.0827 -1.0295,0.2481 -0.3408,0.1654 -0.6099,0.3839 -0.8074,0.6555 h -0.0074 v -0.911 c 0.5481,-0.3802 1.1629,-0.5703 1.8443,-0.5703 0.4889,0 0.9456,0.1037 1.3703,0.311 0.5283,0.2568 0.7925,0.6025 0.7925,1.037 l -0.0148,3.7479 -0.7703,0.0074 v -2.1628 c -0.0938,-0.2321 -0.279,-0.4099 -0.5555,-0.5333 -0.2321,-0.1087 -0.4913,-0.163 -0.7778,-0.163 -0.4098,0 -0.7406,0.0766 -0.9925,0.2296 -0.3111,0.1926 -0.4666,0.479 -0.4666,0.8592 0,0.5679 0.2543,0.9333 0.7629,1.0962 -0.0148,-0.0691 -0.0222,-0.1382 -0.0222,-0.2074 0,-0.237 0.0864,-0.4419 0.2592,-0.6147 0.1729,-0.1728 0.3778,-0.2593 0.6148,-0.2593 0.2419,0 0.4493,0.0865 0.6222,0.2593 0.1728,0.1728 0.2592,0.3777 0.2592,0.6147 z m -0.5111,0 c 0,-0.0987 -0.0358,-0.1851 -0.1074,-0.2592 -0.0716,-0.0741 -0.1592,-0.1111 -0.2629,-0.1111 -0.0988,0 -0.1852,0.037 -0.2592,0.1111 -0.0741,0.0741 -0.1112,0.1605 -0.1112,0.2592 0,0.1037 0.0371,0.1914 0.1112,0.263 0.074,0.0716 0.1604,0.1074 0.2592,0.1074 0.1037,0 0.1913,-0.0358 0.2629,-0.1074 0.0716,-0.0716 0.1074,-0.1593 0.1074,-0.263 z" />
  <path
     id="path1609"
     style="fill:#ee3f21;fill-rule:evenodd"
     d="m 37.4046,46.456 c -0.5382,0.3703 -1.1407,0.5555 -1.8073,0.5555 -0.4938,0 -0.953,-0.1037 -1.3777,-0.3111 -0.5283,-0.2568 -0.7925,-0.6024 -0.7925,-1.037 l 0.0074,-2.6442 c -0.3061,0.2024 -0.5728,0.4246 -0.7999,0.6666 v -0.8962 c 0.2567,-0.1975 0.5234,-0.3654 0.7999,-0.5037 0,-0.7357 0,-1.0221 0,-0.8592 -0.0049,-0.716 -0.0074,-1.148 -0.0074,-1.2962 h 0.7851 l -0.0074,1.8591 c 0.2272,-0.0592 0.4444,-0.0888 0.6518,-0.0888 0.8543,0 1.3975,0.1555 1.6295,0.4666 h -0.0074 c 0.158,0.1728 0.237,0.3728 0.237,0.5999 0,0.242 -0.0851,0.4494 -0.2555,0.6222 -0.1703,0.1728 -0.3765,0.2592 -0.6185,0.2592 -0.2419,0 -0.4481,-0.0864 -0.6184,-0.2592 -0.1704,-0.1728 -0.2556,-0.3802 -0.2556,-0.6222 0,-0.1679 0.0445,-0.3234 0.1334,-0.4666 -0.0939,-0.0148 -0.1753,-0.0222 -0.2445,-0.0222 -0.1975,0 -0.4148,0.0444 -0.6518,0.1333 v 3.0516 c 0,0.2519 0.1778,0.4518 0.5333,0.6 0.2765,0.1135 0.5629,0.1703 0.8592,0.1703 0.3457,0 0.6802,-0.0777 1.0036,-0.2333 0.3235,-0.1555 0.5913,-0.3691 0.8037,-0.6407 z m -1.1925,-3.4887 c 0,-0.0987 -0.0371,-0.1851 -0.1111,-0.2592 -0.0741,-0.0741 -0.1605,-0.1111 -0.2593,-0.1111 -0.0987,0 -0.1851,0.037 -0.2592,0.1111 -0.0741,0.0741 -0.1111,0.1605 -0.1111,0.2592 0,0.1037 0.037,0.1926 0.1111,0.2667 0.0741,0.0741 0.1605,0.1111 0.2592,0.1111 0.0988,0 0.1852,-0.037 0.2593,-0.1111 0.074,-0.0741 0.1111,-0.163 0.1111,-0.2667 z" />
  <path
     id="path1611"
     style="fill:#ee3f21;fill-rule:evenodd"
     d="m 38.5082,46.9967 h -0.7703 v -2.111 0 -0.0296 -4.733 h 0.7703 v 2.8813 c 0.2568,-0.3407 0.5481,-0.6148 0.874,-0.8222 0.2963,-0.1876 0.5605,-0.2814 0.7925,-0.2814 0.3605,0 0.6815,0.1061 0.9629,0.3185 0.3062,0.232 0.4593,0.5258 0.4593,0.8814 v 3.0219 c 0,0.242 -0.0865,0.4494 -0.2593,0.6222 -0.1728,0.1729 -0.3777,0.2593 -0.6147,0.2593 -0.242,0 -0.4494,-0.0864 -0.6222,-0.2593 -0.1728,-0.1728 -0.2593,-0.3802 -0.2593,-0.6222 0,-0.237 0.0865,-0.4419 0.2593,-0.6147 0.1728,-0.1728 0.3802,-0.2593 0.6222,-0.2593 0.0345,0 0.0691,0.0025 0.1036,0.0075 v -2.1554 c 0,-0.1729 -0.0641,-0.3198 -0.1925,-0.4407 -0.1284,-0.121 -0.279,-0.1815 -0.4518,-0.1815 -0.1186,0 -0.2568,0.0592 -0.4148,0.1778 -0.3309,0.2468 -0.6086,0.574 -0.8333,0.9814 -0.2247,0.4073 -0.3666,0.8233 -0.4259,1.248 z m 2.585,-0.8741 c 0,-0.0987 -0.037,-0.1851 -0.1111,-0.2592 -0.0741,-0.0741 -0.1605,-0.1111 -0.2592,-0.1111 -0.1037,0 -0.1914,0.037 -0.263,0.1111 -0.0716,0.0741 -0.1074,0.1605 -0.1074,0.2592 0,0.1037 0.0358,0.1914 0.1074,0.263 0.0716,0.0716 0.1593,0.1074 0.263,0.1074 0.0987,0 0.1851,-0.0358 0.2592,-0.1074 0.0741,-0.0716 0.1111,-0.1593 0.1111,-0.263 z" />
  <path
     id="path1613"
     style="fill:#ee3f21;fill-rule:evenodd"
     d="m 45.4632,46.1226 c 0,0.242 -0.0864,0.4494 -0.2592,0.6222 -0.1728,0.1729 -0.3802,0.2593 -0.6222,0.2593 -0.0839,0 -0.121,0 -0.1111,0 -0.6567,-0.0149 -1.1777,-0.1432 -1.5628,-0.3852 -0.4741,-0.3012 -0.7111,-0.7629 -0.7111,-1.3851 0,-0.5629 0.242,-0.9925 0.7259,-1.2888 0.4049,-0.2518 0.9061,-0.3777 1.5036,-0.3777 0.4938,0 0.9382,0.1086 1.3332,0.3259 v -0.6444 c 0,-0.2518 -0.1753,-0.4518 -0.5259,-0.6 -0.2765,-0.1135 -0.5604,-0.1703 -0.8518,-0.1703 -0.3456,0 -0.6888,0.0827 -1.0295,0.2481 -0.3407,0.1654 -0.6098,0.3839 -0.8074,0.6555 h -0.0074 v -0.911 c 0.5481,-0.3802 1.1629,-0.5703 1.8443,-0.5703 0.4889,0 0.9456,0.1037 1.3703,0.311 0.5284,0.2568 0.7925,0.6025 0.7925,1.037 l -0.0148,3.7479 -0.7703,0.0074 v -2.1628 c -0.0938,-0.2321 -0.279,-0.4099 -0.5555,-0.5333 -0.2321,-0.1087 -0.4913,-0.163 -0.7777,-0.163 -0.4099,0 -0.7407,0.0766 -0.9925,0.2296 -0.3111,0.1926 -0.4667,0.479 -0.4667,0.8592 0,0.5679 0.2543,0.9333 0.7629,1.0962 -0.0148,-0.0691 -0.0222,-0.1382 -0.0222,-0.2074 0,-0.237 0.0864,-0.4419 0.2593,-0.6147 0.1728,-0.1728 0.3777,-0.2593 0.6147,-0.2593 0.242,0 0.4494,0.0865 0.6222,0.2593 0.1728,0.1728 0.2592,0.3777 0.2592,0.6147 z m -0.511,0 c 0,-0.0987 -0.0358,-0.1851 -0.1074,-0.2592 -0.0716,-0.0741 -0.1593,-0.1111 -0.263,-0.1111 -0.0987,0 -0.1852,0.037 -0.2592,0.1111 -0.0741,0.0741 -0.1111,0.1605 -0.1111,0.2592 0,0.1037 0.037,0.1914 0.1111,0.263 0.074,0.0716 0.1605,0.1074 0.2592,0.1074 0.1037,0 0.1914,-0.0358 0.263,-0.1074 0.0716,-0.0716 0.1074,-0.1593 0.1074,-0.263 z" />
  <path
     id="path1615"
     style="fill:#ee3f21;fill-rule:evenodd"
     d="m 48.4482,42.6859 v 4.3182 h -0.7703 v -4.3108 c -0.3358,-0.158 -0.5037,-0.4222 -0.5037,-0.7925 0,-0.2371 0.0864,-0.442 0.2593,-0.6148 0.1728,-0.1728 0.3777,-0.2593 0.6147,-0.2593 0.242,0 0.4481,0.0865 0.6185,0.2593 0.1703,0.1728 0.2555,0.3777 0.2555,0.6148 0,0.3604 -0.158,0.6221 -0.474,0.7851 z m -0.0296,-0.7851 c 0,-0.0988 -0.0358,-0.1852 -0.1074,-0.2593 -0.0716,-0.0741 -0.1593,-0.1111 -0.263,-0.1111 -0.0987,0 -0.1851,0.037 -0.2592,0.1111 -0.0741,0.0741 -0.1111,0.1605 -0.1111,0.2593 0,0.1037 0.037,0.1925 0.1111,0.2666 0.0741,0.0741 0.1605,0.1111 0.2592,0.1111 0.1037,0 0.1914,-0.037 0.263,-0.1111 0.0716,-0.0741 0.1074,-0.1629 0.1074,-0.2666 z" />
  <path
     id="path1617"
     style="fill:#ffc20c;fill-rule:evenodd"
     d="m 51.0258,46.1301 c 0,0.2419 -0.0852,0.4493 -0.2556,0.6221 -0.1703,0.1729 -0.3765,0.2593 -0.6184,0.2593 -0.237,0 -0.442,-0.0864 -0.6148,-0.2593 -0.1728,-0.1728 -0.2592,-0.3802 -0.2592,-0.6221 0,-0.2371 0.0864,-0.442 0.2592,-0.6148 0.1728,-0.1728 0.3778,-0.2592 0.6148,-0.2592 0.2419,0 0.4481,0.0864 0.6184,0.2592 0.1704,0.1728 0.2556,0.3777 0.2556,0.6148 z m -0.5037,0 c 0,-0.0988 -0.0358,-0.1852 -0.1074,-0.2593 -0.0716,-0.0741 -0.1592,-0.1111 -0.2629,-0.1111 -0.0988,0 -0.1852,0.037 -0.2593,0.1111 -0.074,0.0741 -0.1111,0.1605 -0.1111,0.2593 0,0.1036 0.0371,0.1913 0.1111,0.2629 0.0741,0.0716 0.1605,0.1074 0.2593,0.1074 0.1037,0 0.1913,-0.0358 0.2629,-0.1074 0.0716,-0.0716 0.1074,-0.1593 0.1074,-0.2629 z" />
  <path
     id="path1619"
     style="fill:#7da630;fill-rule:evenodd"
     d="m 52.1887,46.4263 v -4.5181 h 0.7703 v 4.5181 h 1.3036 c 0.4592,0 0.6888,-0.1753 0.6888,-0.5259 v -2.2516 c -0.0346,0.0049 -0.0667,0.0074 -0.0963,0.0074 -0.2419,0 -0.4481,-0.0864 -0.6185,-0.2593 -0.1703,-0.1728 -0.2555,-0.3777 -0.2555,-0.6147 0,-0.242 0.0852,-0.4481 0.2555,-0.6185 0.1704,-0.1704 0.3766,-0.2555 0.6185,-0.2555 0.237,0 0.442,0.0827 0.6148,0.2481 0.1728,0.1654 0.2592,0.3666 0.2592,0.6036 l 0.0074,2.1702 c 0,0.5284 -0.0024,0.8469 -0.0074,0.9555 -0.0098,0.3802 -0.1654,0.6666 -0.4666,0.8592 -0.2568,0.1679 -0.5851,0.2519 -0.9851,0.2519 h -2.5702 v -0.5704 z m 3.0368,-3.6441 c 0,-0.1037 -0.0371,-0.1914 -0.1111,-0.263 -0.0741,-0.0716 -0.1605,-0.1074 -0.2593,-0.1074 -0.1037,0 -0.1913,0.0358 -0.2629,0.1074 -0.0716,0.0716 -0.1074,0.1593 -0.1074,0.263 0,0.0987 0.0358,0.1851 0.1074,0.2592 0.0716,0.0741 0.1592,0.1111 0.2629,0.1111 0.0988,0 0.1852,-0.037 0.2593,-0.1111 0.074,-0.0741 0.1111,-0.1605 0.1111,-0.2592 z" />
  <path
     id="path1621"
     style="fill:#7da630;fill-rule:evenodd"
     d="m 60.4547,43.0044 c 0,-0.3654 -0.1556,-0.6469 -0.4666,-0.8444 -0.2667,-0.1679 -0.5951,-0.2518 -0.9851,-0.2518 h -2.5702 v 0.5777 h 0.4814 v 4.5182 h 0.7703 v -4.5182 h 1.3185 c 0.4592,0 0.6888,0.1679 0.6888,0.5037 l -0.0074,3.1405 c 0,0.237 0.0864,0.4419 0.2592,0.6147 0.1728,0.1729 0.3802,0.2593 0.6222,0.2593 0.237,0 0.4419,-0.0864 0.6148,-0.2593 0.1728,-0.1728 0.2592,-0.3777 0.2592,-0.6147 0,-0.242 -0.0864,-0.4482 -0.2592,-0.6185 -0.1729,-0.1704 -0.3778,-0.2555 -0.6148,-0.2555 -0.0346,0 -0.0716,0 -0.1111,0 z m -0.2592,3.1257 c 0,-0.1037 0.0358,-0.1914 0.1074,-0.263 0.0716,-0.0716 0.1592,-0.1074 0.2629,-0.1074 0.0988,0 0.1852,0.0358 0.2592,0.1074 0.0741,0.0716 0.1111,0.1593 0.1111,0.263 0,0.0987 -0.037,0.1851 -0.1111,0.2592 -0.074,0.0741 -0.1604,0.1111 -0.2592,0.1111 -0.1037,0 -0.1913,-0.037 -0.2629,-0.1111 -0.0716,-0.0741 -0.1074,-0.1605 -0.1074,-0.2592 z" />
</svg>
