<svg xmlns="http://www.w3.org/2000/svg" id="svg1623" height="47.04" width="61.44" version="1.1"><path d="M37.638 12.216c-2.282 1.59-3.756 3.694-4.748 6.296-.658 1.725-1.064 3.562-1.33 5.386-.308 2.11-.437 4.262-.47 6.398 2.584-2.836 4.926-6.162 6.137-9.803.89-2.678 1.147-5.536.41-8.277z" id="path1576" fill="#faa619" fill-rule="evenodd"/><path d="M37.47 10.602C35.906 6.807 32.714 4.018 30.72.028c-1.995 3.99-5.187 6.78-6.75 10.574.161.099.32.201.48.308 2.665 1.8 4.524 4.41 5.7 7.38.254.643.476 1.3.669 1.969.205-.774.444-1.53.723-2.26 1.121-2.942 2.828-5.319 5.449-7.089.158-.107.318-.209.478-.308z" id="path1578" fill="#ee3f21" fill-rule="evenodd"/><path d="M48.236 21.109c-2.77-.248-5.252.416-7.684 1.771-1.613.9-3.105 2.045-4.48 3.271-1.593 1.419-3.075 2.984-4.474 4.599 3.803-.511 7.735-1.554 11.003-3.564 2.415-1.486 4.434-3.493 5.635-6.077z" id="path1580" fill="#abc228" fill-rule="evenodd"/><path d="M32.15 32.13c8.05 4.897 14.394 5 18.822 2.845 4.215-2.052 6.481-6.213 10.468-9.17-4.275-1.271-7.577-3.93-11.586-4.81-.069.175-.142.35-.22.524-1.31 2.938-3.557 5.222-6.277 6.895-3.345 2.058-7.315 3.16-11.208 3.716z" id="path1582" fill="#7da630" fill-rule="evenodd"/><path d="M49.144 19.765c1.243-3.911.59-8.1 1.627-12.439-4.092 1.774-8.331 1.86-11.967 3.762.06.179.116.36.169.543.88 3.079.626 6.302-.377 9.317a21.567 21.567 0 0 1-.754 1.94 22.693 22.693 0 0 1 2.007-1.268c2.75-1.532 5.586-2.255 8.73-1.927.19.02.379.044.565.072z" id="path1584" fill="#ffc20c" fill-rule="evenodd"/><path d="M23.802 12.216c-.722 2.675-.499 5.255.41 7.875.605 1.744 1.475 3.412 2.443 4.98 1.121 1.814 2.405 3.546 3.752 5.204.157-3.834-.186-7.887-1.599-11.455-1.044-2.636-2.67-4.972-5.006-6.604z" id="path1586" fill="#f36e1e" fill-rule="evenodd"/><path d="M22.636 11.088C19 9.185 14.761 9.1 10.67 7.326c1.036 4.338.384 8.527 1.627 12.439.186-.028.374-.052.564-.072 3.193-.333 6.307.473 9.11 1.989.609.33 1.202.69 1.779 1.078a22.638 22.638 0 0 1-.9-2.196c-1.028-2.963-1.248-5.903-.382-8.933.053-.183.11-.364.17-.543z" id="path1588" fill="#94003a" fill-rule="evenodd"/><path d="M29.872 30.697c-2.344-3.038-5.213-5.921-8.588-7.746-2.49-1.346-5.247-2.093-8.08-1.842 1.17 2.523 2.985 4.34 5.376 5.77 1.585.946 3.323 1.665 5.073 2.244 2.025.67 4.12 1.17 6.219 1.574z" id="path1590" fill="#f399bf" fill-rule="evenodd"/><path d="M11.586 20.995c-4.01.88-7.31 3.539-11.586 4.81 3.987 2.957 6.252 7.117 10.467 9.17 4.446 2.164 9.885 1.884 18.776-2.93-3.886-.767-8.05-1.925-11.403-3.929-2.702-1.615-4.746-3.709-6.035-6.597a12.91 12.91 0 0 1-.22-.524z" id="path1592" fill="#ee5999" fill-rule="evenodd"/><path id="path1595" d="M2.992 46.123v.015c.277-.218.415-.551.415-1 0-.297-.078-.575-.233-.834a1.44 1.44 0 0 0-.619-.574l-.466-.222 1.103-.637c-.217-.262-.632-.393-1.244-.393-.785 0-1.178.297-1.178.89l.008 3.629h-.77L0 43.493c0-.548.195-.96.585-1.237.34-.237.795-.355 1.363-.355.518 0 .953.076 1.304.23.454.202.728.52.822.955l-.711.415c.543.43.815.975.815 1.637 0 .543-.18.99-.537 1.34-.358.35-.812.524-1.36.519h-.103a.118.118 0 0 0-.03.007h-.03a.836.836 0 0 1-.618-.26.854.854 0 0 1-.256-.621c0-.237.086-.442.256-.615a.836.836 0 0 1 .618-.26.85.85 0 0 1 .623.26.814.814 0 0 1 .251.615zm-.503 0a.355.355 0 0 0-.111-.26.355.355 0 0 0-.519 0 .356.356 0 0 0-.111.26c0 .103.037.191.111.263.074.071.16.107.26.107a.361.361 0 0 0 .259-.107.352.352 0 0 0 .11-.263z" fill="#ee5999" fill-rule="evenodd"/><path id="path1597" d="M8.029 46.123a.845.845 0 0 1-.26.622.848.848 0 0 1-.621.26h-.111c-.657-.016-1.178-.144-1.563-.386-.474-.301-.711-.763-.711-1.385 0-.563.242-.993.726-1.289.404-.252.906-.378 1.503-.378.494 0 .938.109 1.333.326v-.644c0-.252-.175-.452-.526-.6a2.223 2.223 0 0 0-.851-.17c-.346 0-.69.082-1.03.248-.34.165-.61.384-.807.655h-.008v-.91a3.16 3.16 0 0 1 1.845-.571c.488 0 .945.104 1.37.31.528.258.792.603.792 1.038l-.014 3.748-.77.007v-2.163c-.095-.232-.28-.41-.556-.533a1.811 1.811 0 0 0-.778-.163c-.41 0-.74.077-.992.23-.311.192-.467.479-.467.859 0 .568.254.933.763 1.096a.988.988 0 0 1-.022-.207.84.84 0 0 1 .259-.615.84.84 0 0 1 .615-.26c.242 0 .449.087.622.26a.84.84 0 0 1 .259.615zm-.511 0a.361.361 0 0 0-.107-.26.352.352 0 0 0-.263-.11.355.355 0 0 0-.26.11.355.355 0 0 0-.11.26c0 .103.036.191.11.263.074.071.16.107.26.107a.358.358 0 0 0 .263-.107.358.358 0 0 0 .107-.263z" fill="#ee5999" fill-rule="evenodd"/><path id="path1599" d="M13.65 46.997h-2.532c-.38 0-.706-.082-.978-.245-.321-.197-.482-.476-.482-.837l.008-2.651c0-.44.264-.788.793-1.045a3.08 3.08 0 0 1 1.37-.31c.666 0 1.271.184 1.814.555v.903a2.336 2.336 0 0 0-.81-.644 2.261 2.261 0 0 0-1.004-.237c-.296 0-.583.06-.86.178-.355.148-.533.348-.533.6l.008 2.644c0 .34.227.51.681.51h2.526z" fill="#ee5999" fill-rule="evenodd"/><path id="path1601" d="M14.725 46.997h-.77v-6.874h.77v2.881a3.37 3.37 0 0 1 .874-.822c.296-.187.56-.281.792-.281.36 0 .682.106.963.318.306.232.46.526.46.882v3.022a.848.848 0 0 1-.26.622.84.84 0 0 1-.614.26.848.848 0 0 1-.623-.26.849.849 0 0 1-.259-.622.84.84 0 0 1 .26-.615.849.849 0 0 1 .725-.252v-2.155a.583.583 0 0 0-.192-.441.638.638 0 0 0-.452-.181c-.119 0-.257.059-.415.177a3.02 3.02 0 0 0-.833.982 3.603 3.603 0 0 0-.426 1.248zm2.585-.874a.355.355 0 0 0-.111-.26.355.355 0 0 0-.26-.11.352.352 0 0 0-.263.11.361.361 0 0 0-.107.26c0 .103.036.191.107.263.072.071.16.107.263.107a.361.361 0 0 0 .26-.107.352.352 0 0 0 .11-.263z" fill="#ee5999" fill-rule="evenodd"/><path id="path1603" d="M19.169 46.997h-.77v-6.874h.77v2.881a3.37 3.37 0 0 1 .874-.822c.296-.187.56-.281.793-.281.36 0 .68.106.962.318.307.232.46.526.46.882v3.022a.848.848 0 0 1-.26.622.84.84 0 0 1-.614.26.848.848 0 0 1-.623-.26.849.849 0 0 1-.259-.622.84.84 0 0 1 .26-.615.849.849 0 0 1 .725-.252v-2.155a.583.583 0 0 0-.192-.441.638.638 0 0 0-.452-.181c-.119 0-.257.059-.415.177-.33.247-.608.574-.833.982a3.603 3.603 0 0 0-.426 1.248zm2.585-.874a.355.355 0 0 0-.111-.26.355.355 0 0 0-.26-.11.352.352 0 0 0-.262.11.361.361 0 0 0-.108.26c0 .103.036.191.108.263a.358.358 0 0 0 .263.107.361.361 0 0 0 .259-.107.352.352 0 0 0 .11-.263z" fill="#94003a" fill-rule="evenodd"/><path id="path1605" d="M27.198 43.249v1.815c0 .498-.002.772-.007.822-.01.38-.166.666-.467.859-.257.173-.585.26-.985.26l-1.415-.008c-.38 0-.706-.082-.978-.245-.316-.192-.474-.469-.474-.83l.008-2.673c0-.44.262-.788.785-1.045a3.08 3.08 0 0 1 1.37-.31c.489 0 .946.103 1.37.31.529.257.793.605.793 1.045zm-.77 2.651l-.008-2.651c0-.252-.178-.452-.533-.6a2.142 2.142 0 0 0-1.711 0c-.35.148-.526.348-.526.6v2.666c0 .341.23.511.689.511h1.4c.459 0 .689-.175.689-.526zm-.534-1.43a.837.837 0 0 1-.259.62.854.854 0 0 1-.622.255.846.846 0 0 1-.615-.256.836.836 0 0 1-.26-.618c0-.242.087-.448.26-.618a.846.846 0 0 1 .615-.256.85.85 0 0 1 .622.256c.173.17.26.376.26.618zm-.51 0a.361.361 0 0 0-.108-.258.352.352 0 0 0-.263-.111.355.355 0 0 0-.26.11.355.355 0 0 0 0 .52c.075.073.161.11.26.11a.352.352 0 0 0 .263-.11.361.361 0 0 0 .107-.26z" fill="#94003a" fill-rule="evenodd"/><path id="path1607" d="M31.05 46.123a.848.848 0 0 1-.26.622.849.849 0 0 1-.622.26h-.111c-.657-.016-1.178-.144-1.563-.386-.474-.301-.71-.763-.71-1.385 0-.563.241-.993.725-1.289.405-.252.906-.378 1.504-.378.493 0 .938.109 1.333.326v-.644c0-.252-.175-.452-.526-.6a2.224 2.224 0 0 0-.852-.17 2.33 2.33 0 0 0-1.03.248c-.34.165-.61.384-.807.655h-.007v-.91a3.16 3.16 0 0 1 1.844-.571c.489 0 .946.104 1.37.31.529.258.793.603.793 1.038l-.015 3.748-.77.007v-2.163c-.094-.232-.28-.41-.556-.533a1.811 1.811 0 0 0-.778-.163c-.41 0-.74.077-.992.23-.311.192-.467.479-.467.859 0 .568.255.933.763 1.096a.988.988 0 0 1-.022-.207.84.84 0 0 1 .26-.615.84.84 0 0 1 .614-.26c.242 0 .45.087.622.26a.84.84 0 0 1 .26.615zm-.512 0a.361.361 0 0 0-.107-.26.351.351 0 0 0-.263-.11.355.355 0 0 0-.26.11.355.355 0 0 0-.11.26c0 .103.037.191.11.263a.366.366 0 0 0 .26.107.357.357 0 0 0 .263-.107.358.358 0 0 0 .107-.263z" fill="#94003a" fill-rule="evenodd"/><path id="path1609" d="M37.405 46.456a3.12 3.12 0 0 1-1.808.555 3.1 3.1 0 0 1-1.377-.31c-.529-.257-.793-.603-.793-1.038l.008-2.644a4.474 4.474 0 0 0-.8.667v-.896a4.82 4.82 0 0 1 .8-.504v-.86a301.26 301.26 0 0 1-.008-1.295h.785l-.007 1.859c.227-.06.444-.09.652-.09.854 0 1.397.156 1.63.467h-.008a.862.862 0 0 1 .237.6c0 .242-.085.45-.256.623a.836.836 0 0 1-.618.259.836.836 0 0 1-.619-.26.855.855 0 0 1-.255-.622c0-.168.044-.323.133-.466a1.599 1.599 0 0 0-.244-.022 1.87 1.87 0 0 0-.652.133v3.051c0 .252.178.452.533.6a2.281 2.281 0 0 0 1.863-.063 2.23 2.23 0 0 0 .804-.64zm-1.193-3.489a.356.356 0 0 0-.111-.259.355.355 0 0 0-.519 0 .364.364 0 0 0 0 .526.355.355 0 0 0 .519 0 .364.364 0 0 0 .111-.267z" fill="#ee3f21" fill-rule="evenodd"/><path id="path1611" d="M38.508 46.997h-.77v-6.874h.77v2.881a3.37 3.37 0 0 1 .874-.822c.297-.187.56-.281.793-.281.36 0 .681.106.963.318.306.232.459.526.459.882v3.022a.848.848 0 0 1-.26.622.84.84 0 0 1-.614.26.848.848 0 0 1-.622-.26.849.849 0 0 1-.26-.622.84.84 0 0 1 .26-.615.849.849 0 0 1 .725-.252v-2.155a.583.583 0 0 0-.192-.441.638.638 0 0 0-.452-.181c-.118 0-.257.059-.415.177a3.02 3.02 0 0 0-.833.982 3.603 3.603 0 0 0-.426 1.248zm2.585-.874a.355.355 0 0 0-.11-.26.355.355 0 0 0-.26-.11.352.352 0 0 0-.263.11.361.361 0 0 0-.107.26c0 .103.035.191.107.263.072.071.16.107.263.107a.361.361 0 0 0 .26-.107.352.352 0 0 0 .11-.263z" fill="#ee3f21" fill-rule="evenodd"/><path id="path1613" d="M45.463 46.123a.847.847 0 0 1-.259.622.848.848 0 0 1-.622.26h-.111c-.657-.016-1.178-.144-1.563-.386-.474-.301-.711-.763-.711-1.385 0-.563.242-.993.726-1.289.405-.252.906-.378 1.503-.378.494 0 .938.109 1.333.326v-.644c0-.252-.175-.452-.525-.6a2.223 2.223 0 0 0-.852-.17 2.33 2.33 0 0 0-1.03.248c-.34.165-.61.384-.807.655h-.008v-.91a3.16 3.16 0 0 1 1.845-.571c.489 0 .945.104 1.37.31.528.258.793.603.793 1.038l-.015 3.748-.77.007v-2.163c-.094-.232-.28-.41-.556-.533a1.811 1.811 0 0 0-.778-.163c-.41 0-.74.077-.992.23-.311.192-.467.479-.467.859 0 .568.254.933.763 1.096a.988.988 0 0 1-.022-.207.84.84 0 0 1 .26-.615.84.84 0 0 1 .614-.26c.242 0 .45.087.622.26a.84.84 0 0 1 .26.615zm-.51 0a.361.361 0 0 0-.108-.26.352.352 0 0 0-.263-.11.355.355 0 0 0-.26.11.355.355 0 0 0-.11.26c0 .103.036.191.11.263a.366.366 0 0 0 .26.107.358.358 0 0 0 .263-.107.358.358 0 0 0 .107-.263z" fill="#ee3f21" fill-rule="evenodd"/><path id="path1615" d="M48.448 42.686v4.318h-.77v-4.31c-.336-.159-.504-.423-.504-.793a.84.84 0 0 1 .26-.615.84.84 0 0 1 .614-.26c.242 0 .448.087.619.26.17.173.255.378.255.615 0 .36-.158.622-.474.785zm-.03-.785a.361.361 0 0 0-.107-.26.352.352 0 0 0-.263-.11.355.355 0 0 0-.259.11.355.355 0 0 0-.111.26c0 .103.037.192.111.266.074.074.16.111.26.111a.352.352 0 0 0 .262-.11.37.37 0 0 0 .108-.267z" fill="#ee3f21" fill-rule="evenodd"/><path id="path1617" d="M51.026 46.13a.85.85 0 0 1-.256.622.836.836 0 0 1-.618.26.84.84 0 0 1-.615-.26.848.848 0 0 1-.26-.622.84.84 0 0 1 .26-.615.84.84 0 0 1 .615-.259c.242 0 .448.086.618.26.17.172.256.377.256.614zm-.504 0a.361.361 0 0 0-.107-.26.351.351 0 0 0-.263-.11.355.355 0 0 0-.26.11.356.356 0 0 0-.11.26c0 .104.036.191.11.263a.362.362 0 0 0 .26.107.357.357 0 0 0 .263-.107.358.358 0 0 0 .107-.263z" fill="#ffc20c" fill-rule="evenodd"/><path id="path1619" d="M52.189 46.426v-4.518h.77v4.518h1.304c.459 0 .688-.175.688-.526v-2.25a.836.836 0 0 1-.715-.252.846.846 0 0 1-.255-.615c0-.242.085-.448.256-.618a.842.842 0 0 1 .618-.256.86.86 0 0 1 .615.248c.173.166.26.367.26.604l.007 2.17c0 .528-.003.847-.008.956-.01.38-.165.666-.466.859-.257.168-.586.252-.986.252h-2.57v-.57zm3.036-3.644a.352.352 0 0 0-.11-.263.361.361 0 0 0-.26-.107.357.357 0 0 0-.263.107.358.358 0 0 0-.107.263c0 .099.036.185.107.26.072.073.16.11.263.11a.355.355 0 0 0 .26-.11.356.356 0 0 0 .11-.26z" fill="#7da630" fill-rule="evenodd"/><path id="path1621" d="M60.455 43.004a.944.944 0 0 0-.467-.844c-.267-.168-.595-.252-.985-.252h-2.57v.578h.481v4.518h.77v-4.518h1.319c.46 0 .689.168.689.504l-.008 3.14a.84.84 0 0 0 .26.615c.172.173.38.26.622.26a.84.84 0 0 0 .615-.26.84.84 0 0 0 .259-.615.836.836 0 0 0-.26-.618.846.846 0 0 0-.614-.256h-.111zm-.26 3.126c0-.104.036-.191.108-.263a.357.357 0 0 1 .263-.107c.099 0 .185.036.259.107.074.072.111.16.111.263a.355.355 0 0 1-.111.26.355.355 0 0 1-.26.11.351.351 0 0 1-.262-.11.361.361 0 0 1-.107-.26z" fill="#7da630" fill-rule="evenodd"/></svg>