<?xml version="1.0" encoding="UTF-8" standalone="no"?>
<svg
   xmlns:dc="http://purl.org/dc/elements/1.1/"
   xmlns:cc="http://creativecommons.org/ns#"
   xmlns:rdf="http://www.w3.org/1999/02/22-rdf-syntax-ns#"
   xmlns:svg="http://www.w3.org/2000/svg"
   xmlns="http://www.w3.org/2000/svg"
   version="1.1"
   width="61.4398"
   height="36.286999"
   id="svg1623"
   viewBox="0 0 61.4398 36.286999">
  <metadata
     id="metadata1629">
    <rdf:RDF>
      <cc:Work
         rdf:about="">
        <dc:format>image/svg+xml</dc:format>
        <dc:type
           rdf:resource="http://purl.org/dc/dcmitype/StillImage" />
        <dc:title></dc:title>
      </cc:Work>
    </rdf:RDF>
  </metadata>
  <defs
     id="defs1627" />
  <path
     id="path1576"
     style="fill:#faa619;fill-rule:evenodd"
     d="m 37.6376,12.186771 c -2.2812,1.5905 -3.7561,3.6945 -4.748,6.2967 -0.6576,1.7252 -1.0639,3.5617 -1.3297,5.3856 -0.3075,2.1101 -0.4372,4.2617 -0.4707,6.398 2.5847,-2.8361 4.9265,-6.1618 6.1378,-9.8028 0.8909,-2.6778 1.1474,-5.5365 0.4106,-8.2775 z" />
  <path
     id="path1578"
     style="fill:#ee3f21;fill-rule:evenodd"
     d="M 37.4693,10.573671 C 35.907,6.7786708 32.7146,3.9888708 30.7199,-4.2946525e-4 28.7252,3.9888708 25.5328,6.7786708 23.9705,10.573671 c 0.1607,0.0986 0.3204,0.2008 0.4786,0.3076 2.6658,1.8009 4.5248,4.4102 5.7003,7.3794 0.2548,0.6437 0.4769,1.3014 0.6694,1.9696 0.2054,-0.7743 0.4446,-1.5306 0.7229,-2.2606 1.1213,-2.9416 2.8286,-5.3182 5.449,-7.0884 0.1582,-0.1068 0.3179,-0.209 0.4786,-0.3076 z" />
  <path
     id="path1580"
     style="fill:#abc228;fill-rule:evenodd"
     d="m 48.2364,21.080071 c -2.7699,-0.248 -5.2522,0.4158 -7.6847,1.7715 -1.6127,0.8989 -3.1045,2.0446 -4.4804,3.2709 -1.592,1.4188 -3.0743,2.9836 -4.4732,4.5987 3.8031,-0.5112 7.7347,-1.5535 11.003,-3.5641 2.4153,-1.4858 4.4334,-3.4926 5.6353,-6.077 z" />
  <path
     id="path1582"
     style="fill:#7da630;fill-rule:evenodd"
     d="m 32.1491,32.100971 c 8.051,4.8975 14.3954,5.0007 18.8233,2.8449 4.215,-2.0521 6.4806,-6.2124 10.4673,-9.1693 -4.2751,-1.2717 -7.5768,-3.9311 -11.5855,-4.8107 -0.0692,0.1754 -0.142,0.3504 -0.2198,0.5247 -1.3106,2.938 -3.5575,5.2219 -6.2774,6.8951 -3.345,2.0577 -7.3145,3.1594 -11.2079,3.7153 z" />
  <path
     id="path1584"
     style="fill:#ffc20c;fill-rule:evenodd"
     d="m 49.1443,19.736171 c 1.2426,-3.9114 0.5903,-8.1005 1.6265,-12.4386002 -4.0922,1.7738 -8.331,1.8588 -11.9672,3.7618002 0.0597,0.1788 0.1164,0.3597 0.1689,0.5432 0.8804,3.0785 0.6266,6.3012 -0.3767,9.317 -0.2186,0.657 -0.4713,1.3037 -0.7534,1.9393 0.6552,-0.4612 1.3245,-0.8868 2.007,-1.2673 2.7498,-1.5326 5.5853,-2.2557 8.7305,-1.9274 0.1899,0.0198 0.3778,0.0442 0.5644,0.072 z" />
  <path
     id="path1586"
     style="fill:#f36e1e;fill-rule:evenodd"
     d="m 23.8021,12.186871 c -0.7222,2.6756 -0.499,5.255 0.4102,7.8755 0.6051,1.7443 1.4744,3.4123 2.4432,4.9803 1.1208,1.8141 2.4044,3.5457 3.752,5.2037 0.1569,-3.834 -0.1868,-7.8869 -1.5993,-11.4547 -1.0438,-2.6366 -2.6697,-4.9724 -5.0061,-6.6048 z" />
  <path
     id="path1588"
     style="fill:#94003a;fill-rule:evenodd"
     d="M 22.6362,11.059371 C 19,9.1563708 14.7613,9.0713708 10.669,7.2975708 c 1.0363,4.3381002 0.384,8.5272002 1.6265,12.4386002 0.1866,-0.0278 0.3745,-0.0522 0.5644,-0.072 3.193,-0.3333 6.3068,0.4731 9.11,1.9889 0.609,0.3293 1.2019,0.6903 1.7789,1.0785 -0.3404,-0.7252 -0.6433,-1.4583 -0.8993,-2.1964 -1.0281,-2.9633 -1.2486,-5.903 -0.3822,-8.9326 0.0525,-0.1835 0.1092,-0.3644 0.1689,-0.5432 z" />
  <path
     id="path1590"
     style="fill:#f399bf;fill-rule:evenodd"
     d="m 29.872,30.668671 c -2.3443,-3.0379 -5.2127,-5.9216 -8.5882,-7.7468 -2.4891,-1.3459 -5.2465,-2.0923 -8.0804,-1.8417 1.1701,2.5228 2.9861,4.3406 5.3765,5.7693 1.5848,0.9472 3.3229,1.6663 5.0729,2.2447 2.0247,0.6693 4.121,1.1706 6.2192,1.5745 z" />
  <path
     id="path1592"
     style="fill:#ee5999;fill-rule:evenodd"
     d="m 11.5856,20.965871 c -4.0087,0.8796 -7.3104,3.539 -11.5855,4.8107 3.9867,2.9569 6.2523,7.1172 10.4673,9.1693 4.4457,2.1644 9.8845,1.884 18.7758,-2.9299 -3.8861,-0.7667 -8.0509,-1.9246 -11.4033,-3.9283 -2.7022,-1.615 -4.7462,-3.7091 -6.0345,-6.5971 -0.0778,-0.1743 -0.1506,-0.3493 -0.2198,-0.5247 z" />
</svg>
