<svg xmlns="http://www.w3.org/2000/svg" id="svg11965" height="28.8" width="24" version="1.1"><path id="path11959" d="M0-.045v23.994h23.995V-.047z" fill="#fff" fill-rule="evenodd"/><path id="path11961" d="M0 17.55h11.198V7.153h3.2V19.15l4.798-1.6h4.799v-.8h-4.8V6.353l-4.798-1.6v1.6h-3.999V16.75H.001z" fill="#e30016" fill-rule="evenodd"/><path id="path11963" d="M.36 25v1.398a1.52 1.52 0 0 1 .505-.409c.183-.087.388-.131.614-.131.4 0 .738.144 1.015.432.277.287.415.638.415 1.05a1.463 1.463 0 0 1-1.49 1.5c-.21 0-.403-.041-.578-.125a1.462 1.462 0 0 1-.48-.38v.431H0V25zm0 2.371c0 .304.109.568.323.793.215.225.462.337.742.337.305 0 .566-.113.78-.339a1.17 1.17 0 0 0 .323-.838c0-.315-.107-.582-.322-.8a1.038 1.038 0 0 0-.768-.327c-.298 0-.552.114-.763.341a1.186 1.186 0 0 0-.314.833zm5.393-.047c0-.302-.108-.565-.324-.79-.215-.225-.464-.337-.745-.337-.306 0-.566.112-.78.337a1.166 1.166 0 0 0-.323.837c0 .317.107.585.322.803.213.218.47.327.77.327.29 0 .543-.114.758-.345.215-.23.322-.508.322-.832zm0 .99a1.163 1.163 0 0 1-.462.387c-.194.093-.403.14-.627.14-.417 0-.765-.144-1.042-.429a1.455 1.455 0 0 1-.417-1.057 1.46 1.46 0 0 1 1.49-1.497c.22 0 .42.044.602.133.183.09.335.217.456.384v-.454h.355v2.845h-.355zm1.16-.975c0 .329.104.603.313.825.208.222.469.332.779.332.305 0 .562-.11.769-.332.207-.222.31-.498.31-.83 0-.336-.105-.612-.314-.828a1.066 1.066 0 0 0-.799-.325.988.988 0 0 0-.747.334 1.163 1.163 0 0 0-.311.824zm-.382.007c0-.417.143-.774.43-1.07a1.366 1.366 0 0 1 1.015-.445c.413 0 .764.146 1.055.437.29.292.435.639.435 1.042 0 .424-.142.786-.427 1.086-.284.3-.63.45-1.034.45-.412 0-.76-.147-1.046-.441a1.468 1.468 0 0 1-.428-1.059zm5.642-.55a1.176 1.176 0 0 0-.41-.46 1.07 1.07 0 0 0-.576-.15.977.977 0 0 0-.747.334 1.174 1.174 0 0 0-.306.825c0 .327.102.6.308.82a1 1 0 0 0 .76.331c.222 0 .417-.054.585-.162.17-.109.298-.262.386-.458h.403c-.11.308-.284.547-.52.716a1.398 1.398 0 0 1-.836.254c-.41 0-.759-.147-1.042-.44a1.464 1.464 0 0 1-.426-1.056c0-.42.144-.777.43-1.07a1.415 1.415 0 0 1 1.05-.438c.308 0 .58.083.815.25.235.167.411.401.529.704zm3.338.528c0-.302-.108-.565-.324-.79-.215-.225-.464-.337-.745-.337a1.04 1.04 0 0 0-.781.337 1.166 1.166 0 0 0-.322.837c0 .317.107.585.321.803.214.218.47.327.77.327.291 0 .544-.114.759-.345a1.18 1.18 0 0 0 .322-.832zm0 .99a1.163 1.163 0 0 1-.462.387c-.194.093-.404.14-.627.14-.417 0-.765-.144-1.043-.429a1.455 1.455 0 0 1-.416-1.057 1.46 1.46 0 0 1 1.49-1.497c.22 0 .42.044.602.133.183.09.335.217.456.384v-.454h.355v2.845h-.355zm1.18.452v-2.48h-.54v-.365h.54V25h.366v.922h.54v.366h-.54v2.48zm1.549 0h-.371v-.689h.37zm1.966 0h-.334l-1.112-2.845h.386l.91 2.294.92-2.294h.395zm1.415-2.845h.355v.323a1.04 1.04 0 0 1 .39-.287 1.27 1.27 0 0 1 .505-.094c.21 0 .395.039.558.117a.936.936 0 0 1 .528.692c.028.137.042.339.042.607v1.487h-.36v-1.593c0-.337-.064-.58-.193-.732-.128-.152-.334-.228-.617-.228a.918.918 0 0 0-.436.1.735.735 0 0 0-.296.286.797.797 0 0 0-.094.265 3.242 3.242 0 0 0-.027.518v1.384h-.355z" fill="#fff" fill-rule="evenodd"/></svg>