<svg xmlns="http://www.w3.org/2000/svg" id="svg10288" height="24" width="76.8" version="1.1"><path id="path10278" d="M29.61 13.556h.946c.508 0 .87-.12 1.086-.358.216-.239.326-.634.326-1.187v-.893c0-.486-.11-.834-.329-1.045-.22-.211-.58-.318-1.083-.318h-.946zm0-5.132h.853c.532 0 .9-.1 1.104-.297.203-.2.304-.543.304-1.034v-.58c0-.39-.104-.682-.31-.874-.205-.19-.523-.284-.956-.284h-.995zm-2.726 6.495v-1.412h.898V5.41h-.898V3.997h3.9c.967 0 1.684.201 2.151.604.468.404.7 1.021.7 1.85v.382c0 .652-.152 1.163-.454 1.532-.304.369-.767.607-1.387.716.692.1 1.2.337 1.52.708.322.375.482.912.482 1.612v.711c0 .968-.225 1.676-.676 2.128-.452.452-1.155.679-2.11.679zM37.62 10.46h2.036l-.994-4.447zm-3.069 4.459v-1.412h.698l2.144-8.098h-.947V3.997h4.587V5.41h-.946l2.114 8.098h.642v1.412h-3.446v-1.412h.962l-.43-1.828h-2.598l-.454 1.828h.933v1.412zM40.888.565c-.115.607-.291 1.059-.527 1.353a1.125 1.125 0 0 1-.919.444c-.072 0-.15-.006-.227-.019-.078-.013-.166-.035-.265-.059l-.665-.227a.957.957 0 0 0-.177-.048 1.11 1.11 0 0 0-.197-.016c-.18 0-.316.043-.415.128-.099.086-.182.23-.243.433h-.727c.104-.575.278-1.01.519-1.304a1.13 1.13 0 0 1 .91-.444c.079 0 .164.008.252.024s.174.038.257.07l.681.213c.073.024.14.046.204.06.061.013.12.018.17.018a.534.534 0 0 0 .39-.144c.1-.096.185-.257.252-.481zm8.84 6.493v4.816c0 1.072-.266 1.887-.792 2.44-.527.554-1.3.83-2.315.83-1.018 0-1.793-.276-2.323-.83-.529-.553-.793-1.368-.793-2.44V7.058c0-1.072.264-1.885.793-2.438.53-.553 1.305-.83 2.323-.83 1.016 0 1.788.277 2.315.83.526.553.791 1.366.791 2.438zm-1.91-.11c0-.564-.096-.973-.285-1.232-.19-.259-.495-.387-.912-.387-.42 0-.724.128-.92.387-.192.26-.288.668-.288 1.232v5.02c0 .564.096.973.289 1.232.195.26.5.388.92.388.416 0 .72-.128.91-.388.19-.26.287-.668.287-1.232zm12.237 4.362v.455c0 1.098-.265 1.938-.794 2.515-.527.575-1.296.863-2.304.863-1.026 0-1.804-.3-2.33-.895-.53-.599-.794-1.476-.794-2.633v-4.01c0-1.263.232-2.215.697-2.856.465-.64 1.163-.96 2.088-.96.392 0 .748.067 1.069.2.32.134.59.335.812.602v-.599h1.38v3.293h-1.492l-.016-.288c-.04-.56-.163-.976-.372-1.254-.21-.276-.51-.414-.903-.414-.462 0-.804.139-1.024.42-.221.277-.331.716-.331 1.309v4.816c0 .594.11 1.03.326 1.302.22.275.561.412 1.029.412.452 0 .791-.145 1.016-.436.227-.289.339-.722.339-1.293v-.549zm3.44-.85h2.036l-.994-4.447zm-3.069 4.459v-1.412h.698l2.144-8.098h-.947V3.997h4.587V5.41h-.946l2.114 8.098h.641v1.412h-3.445v-1.412h.962l-.43-1.828h-2.598l-.454 1.828h.933v1.412zM64.884.1h1.683l-2.13 2.806h-.965zm5.856 14.818v-1.412h1.074V5.361H70.58v1.828h-1.3V3.997h6.976V7.19h-1.315V5.36h-1.234v8.146h1.09v1.412z" fill="#e30016" fill-rule="evenodd"/><path id="path10280" d="M0 .1v23.8h23.8V.1z" fill="#d9dadb" fill-rule="evenodd"/><path id="path10282" d="M0 17.553h11.106V7.24h3.173v11.9l4.76-1.587h4.76v-.794h-4.76V6.447l-4.76-1.587v1.587h-3.966V16.76H0z" fill="#e30016" fill-rule="evenodd"/><path id="path10284" d="M28.908 23.846h-1.744v-.22c.082-.022.147-.046.195-.07a.246.246 0 0 0 .105-.108.472.472 0 0 0 .045-.172c.007-.07.01-.159.01-.264v-2.866a3.76 3.76 0 0 0-.008-.262.43.43 0 0 0-.043-.174.268.268 0 0 0-.106-.107.852.852 0 0 0-.198-.075v-.22H29.1c.262 0 .485.019.668.055.182.038.342.093.48.168a.996.996 0 0 1 .476.564c.044.125.066.271.066.437 0 .217-.04.404-.115.558-.077.155-.18.285-.31.388-.13.102-.303.2-.52.29v.033c.164.072.3.166.407.285.108.118.205.269.291.45l.209.452c.093.202.186.353.278.454.092.1.2.162.328.185v.219h-1.28a4.839 4.839 0 0 1-.436-.791l-.26-.569a1.978 1.978 0 0 0-.198-.359.498.498 0 0 0-.171-.147.706.706 0 0 0-.271-.04h-.193v1.072c0 .166.008.282.023.348.015.067.046.12.09.16a.63.63 0 0 0 .245.107zm-.358-4.141v1.847h.329c.177 0 .323-.024.439-.07a.664.664 0 0 0 .413-.5c.026-.117.039-.243.039-.38 0-.302-.071-.527-.213-.678-.141-.151-.352-.226-.632-.226-.19 0-.315.002-.375.007zm5.968 3.536c-.225.24-.45.408-.67.508-.222.1-.477.15-.765.15-.516 0-.905-.142-1.165-.424-.26-.283-.39-.701-.39-1.258 0-.359.067-.669.2-.928a1.37 1.37 0 0 1 .57-.593c.246-.133.532-.2.858-.2.202 0 .379.022.53.069.152.046.282.11.39.195.109.083.2.182.27.3.084.14.147.3.19.48a3 3 0 0 1 .068.668h-2.106c.002.4.074.695.214.884.14.19.355.285.643.285.168 0 .32-.032.455-.095s.282-.174.44-.334zm-.897-1.393c-.009-.34-.054-.591-.133-.758a.4.4 0 0 0-.385-.249c-.17 0-.307.087-.408.26-.1.172-.16.421-.18.747zm3.467 1.562l-.049-.016a1.962 1.962 0 0 1-.53.385 1.27 1.27 0 0 1-.548.12 1.12 1.12 0 0 1-.497-.104.73.73 0 0 1-.318-.292.839.839 0 0 1-.108-.429c0-.325.16-.582.48-.769.32-.187.806-.305 1.458-.354v-.315a1.3 1.3 0 0 0-.07-.478.485.485 0 0 0-.18-.236.489.489 0 0 0-.262-.068.61.61 0 0 0-.264.053.494.494 0 0 0-.202.201 1.2 1.2 0 0 0-.133.41h-.627v-.604a8.36 8.36 0 0 1 .508-.21 4.1 4.1 0 0 1 .4-.121 2.615 2.615 0 0 1 .666-.087c.269 0 .484.035.643.106a.71.71 0 0 1 .361.345c.08.16.12.38.12.661v1.297c0 .146.003.259.01.34a.694.694 0 0 0 .031.176.245.245 0 0 0 .136.15c.033.015.093.033.182.056v.219h-1.237zm-.11-1.133c-.343.009-.597.073-.762.192-.165.12-.248.295-.248.526 0 .137.037.241.113.314a.44.44 0 0 0 .313.108.6.6 0 0 0 .585-.589zm3.032.608c0 .21.007.356.02.435.013.08.04.144.081.192.041.048.118.085.232.115v.219h-1.63v-.22a.585.585 0 0 0 .157-.055.269.269 0 0 0 .088-.073.407.407 0 0 0 .055-.106.71.71 0 0 0 .03-.18c.004-.075.006-.186.006-.327v-2.593c0-.19 0-.33-.004-.42a1.821 1.821 0 0 0-.02-.226.395.395 0 0 0-.05-.146.243.243 0 0 0-.098-.088.765.765 0 0 0-.203-.06v-.219l.92-.046h.416zm5.684-3.576v1.057h-.456a2.01 2.01 0 0 0-.186-.427.609.609 0 0 0-.183-.176c-.071-.043-.191-.065-.362-.065h-.725v1.595h.44a.513.513 0 0 0 .229-.042.327.327 0 0 0 .137-.137c.037-.065.071-.165.105-.3h.376v1.35h-.376a1.254 1.254 0 0 0-.103-.295.355.355 0 0 0-.135-.144.49.49 0 0 0-.233-.043h-.44v1.774h.722c.077 0 .143-.004.196-.014.052-.01.1-.027.143-.051a.543.543 0 0 0 .12-.1.797.797 0 0 0 .104-.136c.03-.049.061-.114.095-.193.033-.08.07-.19.109-.33h.456l-.064 1.214h-3.267v-.22c.083-.022.148-.046.195-.07a.246.246 0 0 0 .106-.107.472.472 0 0 0 .045-.173c.007-.07.01-.159.01-.264v-2.866c0-.104-.003-.191-.009-.262a.428.428 0 0 0-.043-.174.268.268 0 0 0-.105-.107.853.853 0 0 0-.199-.075v-.22zm1.05 3.417c.055.263.148.46.278.59.129.13.32.194.57.194.13 0 .247-.022.352-.066a.554.554 0 0 0 .25-.214.673.673 0 0 0 .096-.371.784.784 0 0 0-.077-.358.913.913 0 0 0-.245-.288 2.757 2.757 0 0 0-.472-.288 4.602 4.602 0 0 1-.47-.27 1.766 1.766 0 0 1-.356-.308 1.284 1.284 0 0 1-.23-.366 1.202 1.202 0 0 1-.08-.45c0-.271.066-.503.2-.694a1.26 1.26 0 0 1 .587-.434c.257-.098.553-.148.89-.148a4.756 4.756 0 0 1 1.18.144v.964h-.455a1.407 1.407 0 0 0-.161-.418.62.62 0 0 0-.245-.228.821.821 0 0 0-.369-.072.831.831 0 0 0-.34.065.546.546 0 0 0-.235.199.571.571 0 0 0-.086.318c0 .128.025.24.075.333.05.094.133.186.25.276.118.09.288.193.512.307.273.142.488.281.643.418.157.136.273.284.346.444.074.162.111.349.111.561a1.3 1.3 0 0 1-.189.71c-.126.2-.31.354-.551.462a2.04 2.04 0 0 1-.838.16 6.662 6.662 0 0 1-1.396-.149v-1.023zm3.935 1.12v-.22a.846.846 0 0 0 .222-.062.257.257 0 0 0 .121-.108.43.43 0 0 0 .05-.178c.007-.071.01-.16.01-.266v-3.314h-.269a.78.78 0 0 0-.306.046.474.474 0 0 0-.185.147.925.925 0 0 0-.134.266c-.037.113-.07.218-.093.318h-.456V19.31h3.913v1.166h-.456a5.874 5.874 0 0 0-.1-.332.96.96 0 0 0-.08-.18.664.664 0 0 0-.096-.126.448.448 0 0 0-.107-.08.5.5 0 0 0-.14-.044 1.302 1.302 0 0 0-.221-.015h-.24v3.314c0 .117.004.206.01.266a.464.464 0 0 0 .037.149.3.3 0 0 0 .064.09.369.369 0 0 0 .107.064c.046.02.107.034.185.046v.219zm5.016-1.406h-1.42l-.108.315a2.611 2.611 0 0 0-.077.258c-.02.083-.03.171-.03.264 0 .217.115.334.346.35v.219h-1.419v-.22a.416.416 0 0 0 .215-.087.726.726 0 0 0 .17-.198 2.21 2.21 0 0 0 .163-.363l1.386-3.693h.887l1.097 3.723c.05.166.09.284.123.354s.076.126.13.17a.53.53 0 0 0 .223.095v.219h-1.836v-.22a.45.45 0 0 0 .257-.096c.055-.05.082-.123.082-.216 0-.068-.008-.146-.022-.23a3.768 3.768 0 0 0-.077-.318zm-1.292-.389h1.196l-.531-1.87zm3.758 1.795v-.22a.846.846 0 0 0 .222-.062.257.257 0 0 0 .12-.108.43.43 0 0 0 .05-.178c.008-.071.01-.16.01-.266v-3.314h-.268a.779.779 0 0 0-.306.046.474.474 0 0 0-.185.147.922.922 0 0 0-.134.266c-.038.113-.07.218-.093.318h-.456V19.31h3.913v1.166h-.456a5.96 5.96 0 0 0-.1-.332.96.96 0 0 0-.08-.18.66.66 0 0 0-.096-.126.445.445 0 0 0-.107-.08.501.501 0 0 0-.14-.044 1.302 1.302 0 0 0-.221-.015h-.24v3.314c0 .117.003.206.01.266a.467.467 0 0 0 .036.149c.019.037.04.068.065.09a.37.37 0 0 0 .107.064c.045.02.107.034.185.046v.219zm6.708-4.537v1.057h-.456a2.012 2.012 0 0 0-.186-.427.61.61 0 0 0-.183-.176c-.071-.044-.191-.065-.361-.065h-.725v1.595h.439a.513.513 0 0 0 .229-.042.326.326 0 0 0 .137-.137c.038-.065.072-.165.106-.3h.375v1.35h-.375a1.258 1.258 0 0 0-.103-.295.355.355 0 0 0-.135-.144.491.491 0 0 0-.234-.043h-.44v1.774h.722c.077 0 .143-.004.197-.014.052-.01.1-.027.142-.051a.54.54 0 0 0 .12-.1.797.797 0 0 0 .104-.136c.03-.049.061-.114.095-.193.033-.08.07-.19.11-.33h.455l-.063 1.214h-3.267v-.22c.082-.022.147-.046.195-.07a.246.246 0 0 0 .105-.108.472.472 0 0 0 .045-.172c.007-.07.01-.159.01-.264v-2.866a3.17 3.17 0 0 0-.009-.262.428.428 0 0 0-.043-.174.268.268 0 0 0-.105-.107.852.852 0 0 0-.198-.075v-.22z" fill="#f8b23a" fill-rule="evenodd"/><path id="path10286" d="M23.799 16.76v.793H76.8v-.794z" fill="#e30016" fill-rule="evenodd"/></svg>