<svg version="1.1" id="Layer_1" xmlns="http://www.w3.org/2000/svg" x="0" y="0" width="100" height="50" viewBox="0 0 116 40" xml:space="preserve"><path fill="#414042" d="M48.274 18.273V4.814h1.344v1.473c.452-.615.957-1.072 1.514-1.371a3.853 3.853 0 0 1 1.853-.449c.702 0 1.308.166 1.816.497.509.332.88.804 1.114 1.419.452-.646.962-1.127 1.531-1.443a3.872 3.872 0 0 1 1.907-.473c1.098 0 1.899.34 2.403 1.018.504.679.756 1.76.756 3.246v9.543h-1.44V9.196c0-1.437-.156-2.362-.466-2.778-.311-.415-.857-.623-1.641-.623-.702 0-1.35.229-1.943.688-.594.459-.89.932-.89 1.419v10.37h-1.441V9.196c0-1.444-.153-2.373-.46-2.784-.307-.411-.856-.617-1.646-.617-.71 0-1.358.233-1.943.7-.585.467-.878.96-.878 1.479v10.298h-1.49zM66 4.814v9.089c0 1.421.149 2.345.448 2.772.298.427.835.641 1.61.641.718 0 1.368-.235 1.95-.707.581-.471.872-.978.872-1.521V4.814h1.489v13.459h-1.332V16.8c-.46.623-.958 1.082-1.495 1.377-.537.295-1.148.443-1.834.443-1.114 0-1.925-.336-2.434-1.006-.508-.67-.762-1.752-.762-3.245V4.814H66zm16.709 13.507c-.227.048-.416.08-.569.096s-.303.024-.448.024c-.363 0-.668-.094-.914-.282s-.438-.477-.575-.868a3.884 3.884 0 0 1-1.332 1.03 3.94 3.94 0 0 1-1.67.347c-1.002 0-1.784-.329-2.349-.988s-.848-1.574-.848-2.748c0-1.03.252-1.858.757-2.485.504-.626 1.377-1.18 2.622-1.658.258-.096.608-.22 1.053-.372 1.194-.407 1.792-.946 1.792-1.617V7.676c0-.718-.157-1.241-.472-1.569-.314-.327-.828-.491-1.538-.491-.751 0-1.322.211-1.713.635-.392.423-.6 1.054-.624 1.892h-1.404v-.288c0-1.03.343-1.848 1.029-2.455.686-.607 1.606-.91 2.761-.91.686 0 1.263.083 1.73.251.469.167.844.427 1.127.778.193.239.332.521.417.844s.127.792.127 1.407v7.998c0 .679.061 1.098.182 1.257.121.16.359.24.715.24h.146v1.056zm-2.531-7.257c-2.099.807-3.399 1.458-3.904 1.952-.504.496-.756 1.134-.756 1.917 0 .758.177 1.357.532 1.796.356.439.841.659 1.454.659.92 0 1.596-.33 2.027-.988.432-.659.647-1.694.647-3.107v-2.229zm6.519 7.209V0h1.44v6.059c.331-.551.734-.961 1.211-1.233.476-.271 1.029-.407 1.658-.407 1.405 0 2.452.591 3.143 1.772.689 1.182 1.035 2.978 1.035 5.389 0 2.459-.329 4.251-.987 5.376-.657 1.126-1.693 1.688-3.105 1.688-.613 0-1.158-.144-1.634-.431-.477-.288-.917-.734-1.32-1.341v1.401h-1.441zm1.44-6.741c0 2.124.216 3.634.647 4.532s1.141 1.347 2.125 1.347c.952 0 1.643-.455 2.07-1.365.428-.91.642-2.399.642-4.467 0-2.02-.224-3.503-.672-4.449-.447-.946-1.144-1.419-2.088-1.419-.969 0-1.665.443-2.089 1.329-.423.887-.635 2.384-.635 4.492m17.012 6.789c-.227.048-.416.08-.569.096s-.303.024-.448.024c-.362 0-.667-.094-.914-.282-.246-.188-.438-.477-.574-.868a3.903 3.903 0 0 1-1.332 1.03 3.944 3.944 0 0 1-1.671.347c-1.002 0-1.784-.329-2.349-.988-.565-.659-.848-1.574-.848-2.748 0-1.03.252-1.858.757-2.485.504-.626 1.377-1.18 2.621-1.658.258-.096.608-.22 1.053-.372 1.194-.407 1.792-.946 1.792-1.617V7.676c0-.718-.157-1.241-.472-1.569-.315-.327-.828-.491-1.538-.491-.751 0-1.321.211-1.713.635s-.6 1.054-.624 1.892h-1.404v-.288c0-1.03.343-1.848 1.029-2.455.686-.607 1.605-.91 2.761-.91.686 0 1.263.083 1.73.251.469.167.844.427 1.127.778.193.239.333.521.417.844.085.323.127.792.127 1.407v7.998c0 .679.061 1.098.182 1.257.121.16.359.24.715.24h.146v1.056zm-2.53-7.257c-2.1.807-3.4 1.458-3.905 1.952-.504.496-.757 1.134-.757 1.917 0 .758.178 1.357.533 1.796.355.439.839.659 1.453.659.92 0 1.596-.33 2.027-.988.432-.659.648-1.694.648-3.107v-2.229zm10.013 7.209V9.196c0-1.421-.15-2.347-.448-2.778-.299-.431-.835-.646-1.61-.646-.719 0-1.368.235-1.949.707s-.872.978-.872 1.521v10.274h-1.489V4.814h1.345v1.473c.451-.63.945-1.092 1.482-1.383.537-.292 1.148-.438 1.835-.438 1.113 0 1.925.338 2.434 1.012.508.675.763 1.758.763 3.251v9.543h-1.491zM48.056 39.605V25.75h3.669v1.641c.428-.655.916-1.138 1.465-1.449s1.191-.467 1.925-.467c1.082 0 1.872.357 2.373 1.072.5.714.75 1.846.75 3.395v9.664h-3.886v-8.562c0-1.11-.073-1.8-.218-2.072-.145-.271-.403-.407-.774-.407-.436 0-.777.21-1.023.629-.247.419-.369 1.004-.369 1.754v8.658h-3.912zm11.721 0V21.164h3.898v6.06c.331-.583.757-1.02 1.277-1.311.521-.292 1.145-.438 1.871-.438 1.082 0 1.873.357 2.373 1.072s.751 1.846.751 3.395v9.664H66.06v-8.562c0-1.11-.073-1.8-.218-2.072-.146-.271-.404-.407-.775-.407-.436 0-.777.21-1.023.629-.247.419-.369 1.004-.369 1.754v8.658h-3.898zm18.38 0l-.229-1.27a5.121 5.121 0 0 1-1.616 1.155c-.585.26-1.221.39-1.908.39-1.097 0-1.967-.352-2.609-1.054-.642-.703-.962-1.652-.962-2.85 0-1.046.272-1.908.817-2.586.545-.678 1.438-1.266 2.682-1.761.298-.111.703-.259 1.211-.443 1.46-.527 2.191-1.122 2.191-1.784 0-.407-.104-.717-.314-.928-.21-.212-.513-.318-.908-.318-.477 0-.829.142-1.059.425-.23.284-.345.721-.345 1.311v.096h-3.922c0-1.564.439-2.728 1.319-3.49.88-.762 2.216-1.144 4.007-1.144.808 0 1.527.074 2.162.222.633.147 1.164.361 1.592.641.548.367.934.811 1.156 1.329.222.519.332 1.465.332 2.838v5.34c0 1.086.038 1.914.116 2.484.076.571.203 1.036.381 1.396h-4.094zm-.496-6.67c-1.009.279-1.745.626-2.209 1.042a2.004 2.004 0 0 0-.696 1.557c0 .439.115.791.345 1.054.23.264.539.395.926.395.573 0 .988-.191 1.247-.574.259-.383.388-1.026.388-1.928v-1.546zm18.42-11.771v18.441h-3.596v-1.521c-.371.622-.825 1.097-1.361 1.425a3.373 3.373 0 0 1-1.787.491c-.549 0-1.047-.099-1.495-.294s-.826-.473-1.133-.832c-.347-.431-.591-1.008-.732-1.73-.141-.722-.212-2.078-.212-4.065 0-3.129.267-5.187.8-6.173.532-.985 1.489-1.479 2.869-1.479.589 0 1.105.13 1.55.389.444.26.844.661 1.198 1.204v-5.856h3.899zm-5.085 7.556c-.492 0-.829.251-1.011.754s-.272 1.617-.272 3.341c0 1.796.085 2.916.254 3.359.17.444.48.665.933.665.517 0 .874-.267 1.071-.802.198-.535.297-1.944.297-4.228 0-1.173-.095-1.981-.284-2.425-.192-.443-.52-.664-.988-.664m13.525 10.885l-.23-1.27a5.121 5.121 0 0 1-1.616 1.155c-.585.26-1.221.39-1.907.39-1.098 0-1.967-.352-2.608-1.054-.642-.703-.963-1.652-.963-2.85 0-1.046.272-1.908.817-2.586.545-.678 1.438-1.266 2.682-1.761.299-.111.702-.259 1.211-.443 1.461-.527 2.191-1.122 2.191-1.784 0-.407-.104-.717-.314-.928-.21-.212-.513-.318-.908-.318-.477 0-.829.142-1.06.425-.23.284-.345.721-.345 1.311v.096h-3.923c0-1.564.439-2.728 1.319-3.49s2.216-1.144 4.008-1.144c.807 0 1.527.074 2.161.222.634.147 1.164.361 1.592.641.549.367.935.811 1.156 1.329.222.519.333 1.465.333 2.838v5.34c0 1.086.038 1.914.115 2.484.077.571.204 1.036.382 1.396h-4.093zm-.496-6.67c-1.01.279-1.746.626-2.21 1.042a2 2 0 0 0-.696 1.557c0 .439.115.791.345 1.054.23.264.539.395.927.395.573 0 .988-.191 1.247-.574.259-.383.388-1.026.388-1.928v-1.546zM116 39.557c-.476.088-.892.153-1.247.197s-.657.065-.907.065c-.775 0-1.436-.123-1.98-.37-.545-.248-.946-.604-1.204-1.066-.17-.319-.289-.72-.357-1.203s-.103-1.22-.103-2.209v-6.358h-1.514V25.75h1.514v-3.832h3.935v3.832H116v2.862h-1.864v5.652c0 1.206.089 1.948.267 2.228.178.279.521.419 1.029.419.089 0 .234-.012.436-.036.057-.008.101-.012.133-.012v2.694z"/><path fill="#ED1C24" d="M34.707 0H5.339C2.403 0 0 2.376 0 5.281v29.046c0 2.904 2.403 5.281 5.339 5.281h2.67V14.752l12.014-6.86 12.014 6.86v24.855h2.67c2.937 0 5.339-2.377 5.339-5.281V5.281C40.046 2.376 37.644 0 34.707 0"/><path fill="#ED1C24" d="M13.349 17.786v20.502c0 .729.598 1.32 1.335 1.32h10.679c.737 0 1.335-.592 1.335-1.32V17.786l-6.675-3.811-6.674 3.811z"/></svg>